<?xml version="1.0" standalone="no" ?>
<!DOCTYPE svg PUBLIC "-//W3C//DTD SVG 1.1//EN" "http://www.w3.org/Graphics/SVG/1.1/DTD/svg11.dtd">
<svg width="612px" height="792px" xmlns="http://www.w3.org/2000/svg" version="1.1" >
	<polygon points="358,125 356,129 355,133 354,137 354,142 353,146 353,151 353,156 354,160 355,164 355,169 356,173 357,177 359,181 361,185 364,189 366,193 369,197 372,201 375,205 378,209 381,213 385,216 388,219 391,222 394,225 398,226 402,225 402,220 402,215 402,210 402,205 402,200 402,195 402,190 402,185 402,180 402,175 402,170 402,165 402,160 402,155 398,153 394,151 390,150 386,149 382,147 378,144 374,141 370,138 367,135 364,132 361,128 " fill="rgb(200,160,220)" stroke-width="0.5" stroke="rgb(150,160,200)" />
	<polygon points="440,146 436,148 432,149 428,150 424,151 420,152 416,153 411,153 406,153 402,156 402,161 402,166 402,171 402,176 402,181 402,186 402,191 402,196 402,201 402,206 402,211 402,216 402,221 403,225 408,225 412,224 416,222 420,221 424,218 428,215 431,212 434,209 437,205 438,201 440,197 442,193 444,189 446,185 447,181 448,177 449,173 449,168 450,164 450,159 450,154 450,149 446,146 441,146 " fill="rgb(200,160,220)" stroke-width="0.5" stroke="rgb(150,160,200)" />
	<polygon points="351,311 347,314 344,317 340,320 337,323 333,326 329,328 325,331 321,334 317,336 313,337 309,338 305,339 300,339 295,339 291,337 287,336 283,334 279,332 275,330 271,329 267,328 263,327 259,326 254,327 254,332 254,337 254,342 254,347 254,352 254,357 254,362 254,367 254,372 254,377 254,382 254,387 254,392 254,397 254,402 254,407 254,412 254,417 254,422 254,427 254,432 259,432 263,431 267,430 271,428 275,426 279,424 283,422 287,420 291,417 295,414 299,411 302,407 305,404 309,401 312,398 315,395 318,392 321,389 324,385 327,381 330,377 333,373 336,369 338,365 341,361 342,357 344,353 346,349 348,345 350,341 351,337 352,333 354,329 354,324 355,320 354,316 353,312 " fill="rgb(200,160,220)" stroke-width="0.5" stroke="rgb(150,160,200)" />
	<polygon points="247,326 243,327 239,328 235,329 231,331 227,333 223,335 219,337 215,339 211,340 208,343 205,346 202,349 199,353 196,357 195,361 193,365 190,369 187,373 185,377 182,381 179,384 176,387 172,389 168,390 164,391 160,392 156,393 152,394 147,394 142,394 139,397 139,402 139,407 139,412 142,416 146,418 150,420 154,422 158,423 162,425 166,426 170,427 174,428 178,429 182,430 186,431 190,432 195,432 199,433 204,433 208,434 212,435 217,435 222,435 227,435 232,435 237,435 242,434 247,434 251,433 254,430 254,425 254,420 254,415 254,410 254,405 254,400 254,395 254,390 254,385 254,380 254,375 254,370 254,365 254,360 254,355 254,350 254,345 254,340 254,335 254,330 253,326 248,326 " fill="rgb(200,160,220)" stroke-width="0.5" stroke="rgb(150,160,200)" />
	<polygon points="136,394 132,395 127,395 123,397 125,401 127,405 130,408 134,411 138,412 139,407 139,402 139,397 " fill="rgb(200,160,220)" stroke-width="0.5" stroke="rgb(150,160,200)" />
	<polygon points="280,84 276,86 272,88 269,91 265,94 262,98 259,101 256,104 253,107 251,111 248,115 246,119 244,123 242,127 240,131 240,136 240,141 240,146 240,151 240,156 240,161 240,166 240,171 240,176 240,181 240,186 240,191 240,196 240,201 240,206 240,211 240,216 240,221 240,226 240,231 240,236 240,241 240,246 240,251 240,256 240,261 240,266 240,271 240,276 240,281 240,286 240,291 240,296 240,301 240,306 240,311 240,316 240,321 240,326 244,328 249,328 254,328 259,328 263,329 267,330 271,331 275,332 279,333 283,335 287,337 291,339 295,340 299,341 304,341 308,340 312,339 316,338 320,337 324,335 327,332 331,330 335,327 339,324 343,321 346,318 350,315 353,318 353,323 352,327 351,331 350,335 349,339 348,343 346,347 344,351 342,355 339,359 337,363 334,367 331,370 329,374 328,378 328,383 328,388 328,393 328,398 328,403 328,408 328,413 328,418 328,423 328,428 328,433 328,438 328,443 328,448 328,453 328,458 328,463 328,468 328,473 328,478 328,483 328,488 328,493 328,498 328,503 329,507 333,509 337,507 341,505 345,503 349,501 353,499 356,496 360,494 364,492 368,489 372,487 376,484 380,482 383,479 384,475 384,470 384,465 384,460 384,455 384,450 384,445 384,440 384,435 384,430 384,425 384,420 384,415 384,410 384,405 384,400 384,395 384,390 384,385 384,380 384,375 384,370 384,365 384,360 384,355 384,350 384,345 384,340 384,335 384,330 384,325 384,320 384,315 384,310 384,305 383,300 379,298 375,297 376,293 377,289 378,285 380,281 381,277 382,273 384,269 385,265 383,261 380,257 376,256 372,253 368,250 364,247 360,244 357,241 354,238 351,235 348,232 345,229 342,225 339,222 336,218 333,215 330,212 326,209 322,206 318,203 314,200 316,196 317,192 318,188 318,183 319,179 319,174 319,169 319,164 319,159 318,155 318,150 317,146 316,142 315,138 314,134 313,130 311,126 310,122 308,118 306,114 305,110 302,106 300,102 297,99 294,95 291,91 288,88 284,85 " fill="rgb(200,160,220)" stroke-width="0.5" stroke="rgb(150,160,200)" />
	<polygon points="239,133 237,137 235,141 233,145 231,149 230,153 229,157 227,161 226,165 225,169 224,173 224,178 223,182 220,185 216,186 211,186 207,187 203,188 199,189 195,190 191,191 187,192 183,193 179,195 175,196 171,198 167,200 163,202 159,204 155,206 151,207 147,210 143,213 139,215 135,212 132,209 128,206 124,203 120,201 116,198 112,196 108,194 104,192 100,190 96,188 92,186 88,185 84,184 83,189 83,194 83,199 83,204 83,209 83,214 83,219 83,224 83,229 83,234 83,239 83,244 83,249 83,254 83,259 83,264 83,269 83,274 83,279 83,284 83,289 83,294 83,299 83,304 83,309 83,314 83,319 83,324 83,329 83,334 83,339 83,344 83,349 83,354 83,359 83,364 83,369 83,374 83,379 83,384 83,389 85,393 89,396 93,399 97,400 101,401 105,403 109,405 113,407 117,409 121,411 125,412 129,414 133,415 137,417 141,419 145,420 149,421 146,417 142,414 138,411 134,408 131,405 127,402 128,398 132,397 137,397 141,396 146,396 151,396 155,395 159,394 163,393 167,392 171,391 175,390 179,388 182,385 185,382 187,378 189,374 191,370 194,366 196,362 199,358 202,354 205,350 208,346 212,343 216,341 220,338 224,336 228,334 232,332 236,331 239,328 240,324 240,319 240,314 240,309 240,304 240,299 240,294 240,289 240,284 240,279 240,274 240,269 240,264 240,259 240,254 240,249 240,244 240,239 240,234 240,229 240,224 240,219 240,214 240,209 240,204 240,199 240,194 240,189 240,184 240,179 240,174 240,169 240,164 240,159 240,154 240,149 240,144 240,139 240,134 " fill="rgb(200,160,220)" stroke-width="0.5" stroke="rgb(150,160,200)" />
	<polygon points="451,145 448,148 448,153 448,158 448,163 447,167 446,171 445,175 444,179 444,184 444,189 444,194 444,199 444,204 444,209 444,214 444,219 444,224 444,229 444,234 444,239 444,244 444,249 444,254 444,259 444,264 444,269 444,274 444,279 444,284 444,289 444,294 444,299 444,304 444,309 444,314 444,319 444,324 444,329 444,334 444,339 444,344 444,349 444,354 444,359 444,364 444,369 444,374 444,379 444,384 444,389 444,394 444,399 444,404 444,409 444,414 444,419 444,424 444,429 444,434 444,439 444,444 444,449 444,454 444,459 444,464 446,468 449,472 453,475 457,478 461,481 465,484 469,485 473,486 477,485 481,484 485,483 489,482 493,480 497,478 501,476 505,475 509,472 512,468 515,465 516,461 514,457 512,453 511,449 511,444 511,439 511,434 511,429 511,424 511,419 511,414 510,410 510,405 509,401 508,397 507,393 506,389 505,385 504,381 503,377 502,373 501,369 499,365 498,361 497,357 495,353 493,349 490,345 487,341 484,337 481,333 478,329 475,325 472,322 469,319 466,316 467,311 471,308 475,305 478,302 481,299 484,295 487,292 490,288 493,284 496,280 498,276 501,272 503,268 505,264 507,260 509,256 510,252 511,248 511,243 511,238 511,233 511,228 511,223 511,218 511,213 511,208 511,203 511,198 511,193 511,188 511,183 509,179 507,175 504,172 501,169 498,165 495,162 491,159 487,156 483,154 479,152 475,150 471,149 467,148 463,147 459,146 454,146 " fill="rgb(200,160,220)" stroke-width="0.5" stroke="rgb(150,160,200)" />
	<polygon points="38,175 34,176 30,177 28,181 28,186 27,190 27,195 27,200 28,204 28,209 29,213 30,217 32,221 33,225 34,229 36,233 38,237 39,241 41,245 44,249 46,253 48,257 51,261 54,265 57,268 60,272 63,275 66,278 69,281 73,284 77,286 80,289 79,293 78,297 77,301 76,305 76,310 76,315 75,319 75,324 75,329 75,334 75,339 74,343 74,348 73,352 72,356 71,360 70,364 69,368 67,372 65,376 66,380 69,384 73,387 77,389 81,392 83,388 83,383 83,378 83,373 83,368 83,363 83,358 83,353 83,348 83,343 83,338 83,333 83,328 83,323 83,318 83,313 83,308 83,303 83,298 83,293 83,288 83,283 83,278 83,273 83,268 83,263 83,258 83,253 83,248 83,243 83,238 83,233 83,228 83,223 83,218 83,213 83,208 83,203 83,198 83,193 83,188 82,184 79,181 75,180 71,179 67,178 63,177 59,176 54,176 50,175 45,175 40,175 " fill="rgb(200,160,220)" stroke-width="0.5" stroke="rgb(150,160,200)" />
	<polygon points="512,183 511,187 511,192 511,197 511,202 511,207 511,212 511,217 511,222 511,227 511,232 511,237 511,242 515,240 516,236 517,232 518,228 519,224 519,219 520,215 520,210 520,205 519,201 519,196 517,192 515,188 513,184 " fill="rgb(200,160,220)" stroke-width="0.5" stroke="rgb(150,160,200)" />
	<polygon points="443,185 441,189 440,193 438,197 435,201 432,205 429,209 426,212 423,215 419,218 415,221 411,222 407,223 403,224 399,226 400,230 403,234 407,237 411,240 415,243 419,246 423,249 427,252 430,255 433,258 436,262 438,266 440,270 441,274 441,279 442,283 441,287 441,292 439,296 436,300 432,299 428,297 424,296 420,295 416,294 412,293 407,293 402,293 398,294 394,295 390,296 386,297 384,301 384,306 384,311 384,316 384,321 384,326 384,331 384,336 384,341 384,346 384,351 384,356 384,361 384,366 384,371 384,376 384,381 384,386 384,391 384,396 384,401 384,406 384,411 384,416 384,421 384,426 384,431 384,436 384,441 384,446 384,451 384,456 384,461 384,466 384,471 384,476 388,477 392,474 396,472 400,469 404,466 408,464 412,461 416,459 420,456 424,453 427,450 431,452 434,456 437,460 440,463 443,460 444,456 444,451 444,446 444,441 444,436 444,431 444,426 444,421 444,416 444,411 444,406 444,401 444,396 444,391 444,386 444,381 444,376 444,371 444,366 444,361 444,356 444,351 444,346 444,341 444,336 444,331 444,326 444,321 444,316 444,311 444,306 444,301 444,296 444,291 444,286 444,281 444,276 444,271 444,266 444,261 444,256 444,251 444,246 444,241 444,236 444,231 444,226 444,221 444,216 444,211 444,206 444,201 444,196 444,191 444,186 " fill="rgb(200,160,220)" stroke-width="0.5" stroke="rgb(150,160,200)" />
	<polygon points="327,377 324,381 321,384 318,388 315,391 312,394 309,398 306,401 303,404 300,407 297,410 293,413 289,415 286,418 282,421 278,422 274,425 270,427 266,429 262,430 258,431 254,432 250,433 246,435 246,440 246,445 246,450 246,455 246,460 246,465 246,470 246,475 246,480 246,485 246,490 246,495 246,500 246,505 246,510 246,515 246,520 250,522 255,522 260,522 265,522 269,523 271,527 272,531 272,536 273,540 274,544 274,549 275,554 279,555 283,556 288,556 293,556 298,556 303,556 307,555 311,554 315,552 316,548 316,543 316,538 316,533 317,529 317,524 317,519 318,515 321,512 325,511 328,508 328,503 328,498 328,493 328,488 328,483 328,478 328,473 328,468 328,463 328,458 328,453 328,448 328,443 328,438 328,433 328,428 328,423 328,418 328,413 328,408 328,403 328,398 328,393 328,388 328,383 328,378 " fill="rgb(200,160,220)" stroke-width="0.5" stroke="rgb(150,160,200)" />
	<polygon points="154,421 " fill="rgb(200,160,220)" stroke-width="0.5" stroke="rgb(150,160,200)" />
	<polygon points="156,422 " fill="rgb(200,160,220)" stroke-width="0.5" stroke="rgb(150,160,200)" />
	<polygon points="159,423 " fill="rgb(200,160,220)" stroke-width="0.5" stroke="rgb(150,160,200)" />
	<polygon points="166,425 163,428 163,433 162,437 162,442 161,446 161,451 160,455 160,460 159,464 159,469 158,474 158,479 157,483 157,488 156,492 156,497 155,501 154,505 154,510 153,514 153,519 152,523 151,527 153,531 157,533 161,535 165,536 169,538 173,539 177,540 181,541 185,542 190,541 192,537 194,533 195,529 196,525 196,520 197,516 200,512 205,512 209,514 213,515 217,516 221,517 225,519 230,519 234,520 238,521 243,521 246,518 246,513 246,508 246,503 246,498 246,493 246,488 246,483 246,478 246,473 246,468 246,463 246,458 246,453 246,448 246,443 246,438 245,434 241,433 236,433 232,434 227,434 222,434 217,434 213,433 208,433 203,433 199,432 195,431 190,431 186,430 182,429 178,428 174,427 170,426 " fill="rgb(200,160,220)" stroke-width="0.5" stroke="rgb(150,160,200)" />
	<polygon points="154,529 152,533 152,538 151,542 150,546 149,550 149,555 149,560 149,565 149,570 149,575 149,580 149,585 149,590 149,595 149,600 149,605 149,610 149,615 149,620 149,625 149,630 149,635 149,640 149,645 149,650 153,651 157,650 161,649 165,647 169,644 173,641 176,638 178,634 180,630 182,626 184,622 184,617 184,612 184,607 184,602 184,597 185,593 185,588 186,584 186,579 187,575 188,571 189,567 190,563 190,558 191,554 192,550 193,546 191,542 187,539 183,538 179,537 174,536 170,535 166,534 162,532 158,531 " fill="rgb(200,160,220)" stroke-width="0.5" stroke="rgb(150,160,200)" />
	<polygon points="148,563 147,567 146,572 145,576 144,580 143,584 140,588 137,591 134,594 130,597 126,599 122,602 119,605 115,608 111,611 108,615 107,619 106,623 106,628 107,632 108,636 109,640 112,644 115,648 119,650 123,652 127,654 131,656 136,656 141,656 145,655 149,653 149,648 149,643 149,638 149,633 149,628 149,623 149,618 149,613 149,608 149,603 149,598 149,593 149,588 149,583 149,578 149,573 149,568 " fill="rgb(200,160,220)" stroke-width="0.5" stroke="rgb(150,160,200)" />
	<polygon points="278,551 277,555 277,560 277,565 278,569 278,574 278,579 278,584 278,589 278,594 277,599 277,604 277,609 277,614 277,619 277,624 277,629 277,634 277,639 277,644 277,649 277,654 277,659 277,664 277,669 277,674 278,678 282,680 286,679 291,679 295,677 299,676 303,673 307,670 311,667 312,663 312,658 312,653 312,648 312,643 312,638 312,633 312,628 312,623 312,618 312,613 312,608 312,603 312,598 312,593 312,588 312,583 312,578 312,573 312,568 312,563 312,558 311,554 307,553 303,554 298,554 293,554 288,554 284,553 280,551 " fill="rgb(200,160,220)" stroke-width="0.5" stroke="rgb(150,160,200)" />
	<polygon points="313,552 312,556 312,561 312,566 312,571 312,576 312,581 312,586 312,591 312,596 312,601 312,606 312,611 312,616 312,621 312,626 312,631 312,636 312,641 312,646 312,651 312,656 313,660 315,656 317,652 319,648 321,644 322,640 323,636 324,632 324,627 323,622 322,618 321,614 320,610 320,605 319,601 319,596 319,591 319,586 318,582 318,577 318,572 318,567 318,562 318,557 317,553 " fill="rgb(200,160,220)" stroke-width="0.5" stroke="rgb(150,160,200)" />
	<polygon points="276,613 274,617 271,621 268,624 264,626 261,629 258,633 255,636 254,640 252,644 251,648 250,652 250,657 251,661 253,665 255,669 258,673 262,675 266,677 270,678 274,679 277,676 277,671 277,666 277,661 277,656 277,651 277,646 277,641 277,636 277,631 277,626 277,621 277,616 " fill="rgb(200,160,220)" stroke-width="0.5" stroke="rgb(150,160,200)" />
	<polygon points="414,458 413,462 413,467 413,472 413,477 413,482 413,487 413,492 413,497 413,502 413,507 413,512 413,517 413,522 413,527 413,532 413,537 413,542 413,547 413,552 413,557 413,562 413,567 413,572 413,577 413,582 413,587 417,585 418,581 419,577 420,573 419,569 419,564 419,559 419,554 420,550 420,545 421,540 422,535 422,530 423,526 424,522 425,518 426,514 427,509 427,504 428,499 429,495 430,491 430,486 430,481 428,477 426,473 424,469 421,465 418,461 " fill="rgb(200,160,220)" stroke-width="0.5" stroke="rgb(150,160,200)" />
	<polygon points="411,459 407,462 403,465 399,467 395,470 391,473 387,476 383,479 379,480 375,483 375,488 376,492 378,496 379,500 379,505 379,510 378,514 378,519 378,524 377,528 376,532 374,536 373,540 373,545 373,550 373,555 373,560 373,565 373,570 373,575 373,580 373,585 373,590 373,595 374,599 378,601 383,601 388,601 393,601 397,600 401,599 405,598 409,596 413,593 413,588 413,583 413,578 413,573 413,568 413,563 413,558 413,553 413,548 413,543 413,538 413,533 413,528 413,523 413,518 413,513 413,508 413,503 413,498 413,493 413,488 413,483 413,478 413,473 413,468 413,463 412,459 " fill="rgb(200,160,220)" stroke-width="0.5" stroke="rgb(150,160,200)" />
	<polygon points="371,540 368,544 365,547 361,550 357,552 354,556 351,560 350,564 348,568 347,572 348,576 349,580 350,584 351,588 355,590 358,593 362,595 366,597 370,599 372,595 373,591 373,586 373,581 373,576 373,571 373,566 373,561 373,556 373,551 373,546 373,541 " fill="rgb(200,160,220)" stroke-width="0.5" stroke="rgb(150,160,200)" />
	<polygon points="515,461 512,464 509,467 506,471 502,474 498,475 494,478 490,480 488,484 488,489 488,494 488,499 488,504 488,509 488,514 488,519 488,524 488,529 488,534 488,539 488,544 488,549 488,554 488,559 488,564 488,569 488,574 488,579 488,584 488,589 488,594 488,599 488,604 491,608 496,608 500,607 504,606 508,605 512,603 516,600 519,597 521,593 522,589 522,584 522,579 522,574 522,569 522,564 522,559 522,554 522,549 522,544 522,539 522,534 522,529 522,524 522,519 522,514 522,509 522,504 522,499 522,494 522,489 522,484 522,479 522,474 522,469 521,465 518,462 " fill="rgb(200,160,220)" stroke-width="0.5" stroke="rgb(150,160,200)" />
	<polygon points="523,468 522,472 522,477 522,482 522,487 522,492 522,497 522,502 522,507 522,512 522,517 522,522 522,527 522,532 522,537 522,542 522,547 522,552 522,557 522,562 522,567 522,572 522,577 522,582 523,586 524,582 525,578 524,573 524,568 524,563 524,558 525,553 525,548 526,544 527,540 527,535 528,531 529,527 530,523 531,519 532,515 533,511 534,506 534,501 535,496 535,491 534,487 533,483 531,479 528,475 525,471 " fill="rgb(200,160,220)" stroke-width="0.5" stroke="rgb(150,160,200)" />
	<polygon points="487,480 483,482 479,483 475,484 474,488 475,492 478,495 481,499 484,503 484,508 484,513 484,518 484,523 483,528 482,532 481,536 480,540 479,544 476,548 473,552 469,555 465,556 461,559 458,562 457,566 455,570 453,574 452,578 452,583 453,587 455,591 457,595 461,598 465,601 469,603 473,604 477,606 481,607 486,607 488,603 488,598 488,593 488,588 488,583 488,578 488,573 488,568 488,563 488,558 488,553 488,548 488,543 488,538 488,533 488,528 488,523 488,518 488,513 488,508 488,503 488,498 488,493 488,488 488,483 " fill="rgb(200,160,220)" stroke-width="0.5" stroke="rgb(150,160,200)" />
	<polygon points="6,64 6,69 6,74 6,79 6,84 6,89 6,94 5,98 5,103 5,108 5,113 5,118 5,123 5,128 5,133 5,138 5,143 5,148 5,153 5,158 6,162 6,167 6,172 6,177 6,182 6,187 6,192 6,197 6,202 6,207 6,212 6,217 6,222 6,227 6,232 6,237 6,242 6,247 6,252 6,257 6,262 6,267 6,272 6,277 6,282 6,287 6,292 6,297 6,302 6,307 6,312 6,317 6,322 6,327 6,332 6,337 6,342 6,347 6,352 6,357 6,362 6,367 6,372 6,377 6,382 6,387 6,392 6,397 6,402 6,407 6,412 6,417 6,422 6,427 6,432 6,437 6,442 6,447 6,452 6,457 6,462 6,467 6,472 6,477 6,482 6,487 6,492 6,497 6,502 6,507 6,512 6,517 6,522 6,527 6,532 6,537 6,542 6,547 6,552 6,557 6,562 6,567 6,572 6,577 6,582 6,587 6,592 6,597 6,602 6,607 5,611 5,616 5,621 5,626 5,631 5,636 5,641 5,646 5,651 5,656 5,661 5,666 5,671 6,675 6,680 6,685 6,690 6,695 6,700 6,705 9,708 13,709 18,709 23,709 28,709 33,709 38,709 43,709 48,709 53,709 58,709 63,709 68,709 73,709 78,709 83,709 88,709 93,709 98,709 103,709 108,709 113,709 118,709 123,709 128,709 133,709 138,709 143,709 148,709 153,709 158,709 163,709 168,709 173,709 178,709 183,709 188,709 193,709 198,709 203,709 208,709 213,709 218,709 223,709 228,709 233,709 238,709 243,709 248,709 253,709 258,709 263,709 268,709 273,709 278,709 283,709 288,709 293,709 298,708 300,704 300,699 300,694 300,689 300,684 299,679 295,677 291,679 287,680 282,680 277,680 273,679 269,677 265,676 261,673 258,670 254,667 251,663 250,659 250,654 251,649 252,645 253,641 256,637 259,633 262,630 266,627 270,624 273,620 274,616 276,612 277,608 278,604 278,599 278,594 279,590 278,586 278,581 278,576 278,571 277,567 277,562 276,558 276,553 276,548 275,544 274,540 274,535 273,531 272,527 270,523 266,522 261,522 256,522 252,521 247,521 242,521 238,520 233,520 229,519 225,518 221,517 217,516 213,515 209,513 205,512 200,513 199,517 198,521 197,525 197,530 196,534 195,538 194,542 193,546 192,550 191,554 190,558 190,563 189,567 188,571 187,575 186,579 186,584 185,588 185,593 184,597 184,602 184,607 184,612 184,617 184,622 182,626 180,630 178,634 175,637 172,640 169,643 166,646 162,648 158,651 154,652 150,654 146,655 142,656 138,655 133,655 129,654 125,653 121,650 118,647 114,644 110,641 107,637 106,633 106,628 106,623 107,619 110,615 113,611 116,608 120,605 124,602 128,599 132,596 136,593 140,590 142,586 144,582 145,578 146,574 147,570 147,565 148,561 149,557 150,553 151,549 151,544 152,540 152,535 153,531 153,526 154,522 155,518 155,513 156,509 156,504 157,500 158,496 158,491 159,487 160,483 160,478 161,474 161,469 162,465 162,460 163,456 163,451 164,447 164,442 164,437 165,433 164,429 162,425 158,424 154,422 150,420 146,419 142,418 138,417 134,415 130,413 126,412 122,410 118,408 114,406 110,404 106,402 102,401 98,399 94,396 90,394 86,392 82,390 78,388 75,385 71,382 68,379 68,374 69,370 71,366 73,362 74,358 75,354 76,350 76,345 77,341 77,336 77,331 77,326 77,321 77,316 78,311 78,306 79,302 80,297 81,293 79,289 77,285 74,281 70,278 67,275 64,272 61,269 58,266 55,263 52,259 49,255 46,251 43,247 41,243 39,239 37,235 36,231 34,227 33,223 32,219 31,215 30,211 29,207 29,202 29,197 29,192 29,187 30,183 31,179 34,176 38,175 43,175 47,174 52,174 56,175 61,175 65,176 69,177 73,178 77,179 81,180 85,181 89,183 93,184 97,186 101,188 105,190 109,192 113,194 116,197 120,200 123,203 127,206 130,209 134,212 138,214 142,213 146,212 150,210 154,208 157,205 161,202 165,200 169,199 173,197 177,195 181,193 185,192 189,191 193,190 197,189 201,187 206,187 210,186 214,185 219,185 223,183 225,179 226,175 227,171 228,167 229,163 230,159 231,155 232,151 233,147 234,143 236,139 238,135 240,131 241,127 244,124 246,120 249,116 252,112 255,108 258,104 261,101 264,98 267,95 270,92 273,89 277,87 281,85 285,86 288,89 291,92 294,95 299,94 300,90 300,85 300,80 300,75 300,70 299,66 295,65 290,65 285,65 280,65 275,65 270,65 265,65 260,65 255,65 250,65 245,65 240,65 235,65 230,65 225,65 220,65 215,65 210,65 205,65 200,65 195,65 190,65 185,65 180,65 175,65 170,65 165,65 160,65 155,65 150,65 145,65 140,65 135,65 130,65 125,65 120,65 115,65 110,65 105,65 100,65 95,65 91,64 86,64 81,64 76,64 71,64 66,64 61,64 56,64 51,64 46,64 41,64 37,65 32,65 27,65 22,65 17,65 12,65 8,64 " fill="rgb(200,160,220)" stroke-width="0.5" stroke="rgb(150,160,200)" />
	<polygon points="300,65 299,69 299,74 299,79 299,84 299,89 299,94 300,98 301,102 302,106 305,110 307,114 309,118 311,122 313,126 315,130 316,134 317,138 318,142 319,146 320,150 320,155 320,160 321,164 321,169 321,174 320,179 319,183 319,188 318,192 317,196 317,201 320,205 324,207 327,210 331,213 334,216 337,220 340,224 343,227 346,230 349,233 352,237 355,240 358,243 362,246 366,249 370,252 374,253 378,255 382,258 385,262 386,266 385,270 384,274 383,278 381,282 380,286 378,290 376,294 379,297 383,296 387,295 391,294 395,293 400,293 405,293 410,293 415,294 419,295 423,296 427,297 431,298 435,299 439,298 442,294 443,290 443,285 443,280 442,276 441,272 439,268 437,264 435,260 433,256 430,252 427,249 424,246 420,243 416,241 412,238 408,235 404,233 401,230 398,227 394,224 392,220 388,217 385,214 382,211 379,208 376,205 373,201 370,197 367,193 365,189 362,185 360,181 358,177 357,173 355,169 354,165 354,160 353,156 353,151 354,146 354,141 355,137 356,133 358,129 362,130 365,133 368,137 371,140 375,142 379,144 383,146 387,148 391,150 395,151 399,152 404,152 408,153 412,152 417,152 421,151 425,150 429,149 433,148 437,147 441,146 445,145 450,145 455,145 459,146 463,147 467,148 471,149 475,150 479,151 483,154 487,157 491,160 495,163 498,166 501,169 504,172 507,175 510,179 512,183 515,186 517,190 519,194 520,198 520,203 520,208 520,213 520,218 519,223 518,227 517,231 516,235 515,239 514,243 513,247 511,251 510,255 508,259 506,263 504,267 501,271 498,275 495,279 493,283 490,286 487,290 484,294 481,297 478,300 475,303 472,306 469,309 466,312 467,316 469,320 472,323 475,326 478,329 481,332 484,336 487,340 490,344 492,348 495,352 497,356 499,360 500,364 502,368 504,372 505,376 506,380 507,384 508,388 509,392 509,397 510,401 511,405 511,410 511,415 512,419 512,424 511,428 511,433 511,438 511,443 512,447 513,451 514,455 516,459 518,463 521,466 524,470 527,473 530,476 533,480 535,484 535,489 535,494 534,498 533,502 532,506 531,510 530,514 529,518 528,522 528,527 527,531 527,536 526,540 525,544 524,548 524,553 524,558 524,563 524,568 525,572 525,577 524,582 523,586 522,590 520,594 517,598 514,601 510,604 506,605 502,606 498,607 494,608 489,608 484,608 480,607 476,606 472,604 468,602 464,600 461,597 458,594 454,591 452,587 452,582 453,577 454,572 456,568 459,564 462,560 466,558 470,555 474,552 476,548 478,544 480,540 482,536 483,532 484,528 484,523 484,518 484,513 484,508 483,504 482,500 480,496 477,493 474,489 470,486 467,483 463,480 459,477 455,474 452,471 449,468 445,465 442,462 439,459 437,455 434,452 430,451 426,452 422,454 419,458 420,462 421,466 424,470 427,474 429,478 430,482 430,487 429,491 429,496 428,500 427,504 426,508 425,512 424,516 423,520 423,525 422,529 421,533 420,537 420,542 419,546 419,551 419,556 419,561 420,565 420,570 419,574 418,578 417,582 415,586 412,590 409,594 406,597 402,599 398,601 393,601 388,601 383,601 378,600 374,599 370,598 366,597 362,594 358,591 354,588 350,585 348,581 347,577 347,572 348,568 349,564 352,560 355,556 358,553 362,550 366,548 369,545 372,541 374,537 376,533 377,529 378,525 379,521 379,516 379,511 379,506 379,501 378,497 376,493 374,489 369,490 365,492 361,495 357,497 353,499 350,502 346,504 342,505 338,507 334,509 330,511 326,512 322,513 319,516 318,520 318,525 318,530 318,535 318,540 318,545 318,550 318,555 318,560 318,565 318,570 319,575 319,580 319,585 319,590 320,594 320,599 321,603 322,608 323,613 323,618 324,622 324,627 324,632 323,637 322,641 320,645 319,649 317,653 315,657 313,661 310,665 307,669 303,672 299,675 299,680 299,685 299,690 299,695 299,700 299,705 302,708 306,709 311,709 316,709 321,709 326,709 331,709 336,709 341,709 346,709 351,709 356,709 361,709 366,709 371,709 376,709 381,709 386,709 391,709 396,709 401,709 406,709 411,709 416,709 421,709 426,709 431,709 436,709 441,709 446,709 451,709 456,709 461,709 466,709 471,709 476,709 481,709 486,709 491,708 496,708 501,708 506,708 511,708 516,708 521,708 526,708 531,708 536,708 541,708 546,709 551,709 556,709 561,709 566,709 571,709 575,707 578,703 578,698 578,693 578,688 578,683 578,678 578,673 578,668 578,663 578,658 578,653 578,648 578,643 578,638 578,633 578,628 578,623 578,618 578,613 578,608 578,603 578,598 578,593 578,588 578,583 578,578 578,573 578,568 578,563 578,558 578,553 578,548 578,543 578,538 578,533 578,528 578,523 578,518 578,513 578,508 578,503 578,498 578,493 578,488 578,483 578,478 578,473 578,468 578,463 578,458 578,453 578,448 578,443 578,438 578,433 578,428 578,423 578,418 578,413 578,408 578,403 578,398 578,393 578,388 578,383 578,378 578,373 578,368 578,363 578,358 578,353 578,348 578,343 578,338 578,333 578,328 578,323 578,318 578,313 578,308 578,303 578,298 578,293 578,288 578,283 578,278 578,273 578,268 578,263 578,258 578,253 578,248 578,243 578,238 578,233 578,228 578,223 578,218 578,213 578,208 578,203 578,198 578,193 578,188 578,183 578,178 578,173 578,168 577,164 577,159 577,154 577,149 577,144 577,139 577,134 577,129 577,124 577,119 577,114 577,109 577,104 578,100 578,95 578,90 578,85 578,80 578,75 578,70 575,66 571,65 566,65 561,65 556,65 551,65 546,65 541,65 536,65 531,65 526,65 521,65 516,65 511,65 506,65 501,65 496,65 491,65 486,65 481,65 476,65 471,65 466,65 461,65 456,65 451,65 446,65 441,65 436,65 431,65 426,65 421,65 416,65 411,65 406,65 401,65 396,65 391,65 386,65 381,65 376,65 371,65 366,65 361,65 356,65 351,65 346,65 341,65 336,65 331,65 326,65 321,65 316,65 311,65 306,65 301,65 " fill="rgb(200,160,220)" stroke-width="0.5" stroke="rgb(150,160,200)" />
</svg>
