<?xml version="1.0" encoding="utf-8"?>
<!-- Generator: Adobe Illustrator 18.1.1, SVG Export Plug-In . SVG Version: 6.00 Build 0)  -->
<svg version="1.1"
	 id="svg2" xmlns:rdf="http://www.w3.org/1999/02/22-rdf-syntax-ns#" xmlns:svg="http://www.w3.org/2000/svg" xmlns:sodipodi="http://sodipodi.sourceforge.net/DTD/sodipodi-0.dtd" xmlns:dc="http://purl.org/dc/elements/1.1/" xmlns:inkscape="http://www.inkscape.org/namespaces/inkscape" xmlns:cc="http://creativecommons.org/ns#" sodipodi:docname="" inkscape:version="0.47 r22583"
	 xmlns="http://www.w3.org/2000/svg" xmlns:xlink="http://www.w3.org/1999/xlink" x="0px" y="0px" viewBox="0 0 612 792"
	 enable-background="new 0 0 612 792" xml:space="preserve">
<path fill="#53C8EA" d="M16.6,113.8v564.3h546V113.8H16.6z M452.9,651.4c12.6-1.9,24.3-4.4,34.6-7.3
	C477.1,647,465.5,649.4,452.9,651.4z M529.3,614.1c-0.4,3.5-1.3,6.5-2.5,8.9c-1.2,2.5-2.7,4.4-4.7,5.8c-0.3,0.2-0.5,0.3-0.8,0.5
	c-0.5,0.3-1,0.7-1.5,1c-0.6,0.4-1.1,0.7-1.7,1c-0.6,0.3-1.3,0.7-1.8,1c-0.4,0.2-1,0.5-1.4,0.7c-0.7,0.4-1.5,0.8-2.4,1.3
	c-0.5,0.3-1,0.5-1.4,0.7c-0.8,0.4-1.7,0.8-2.5,1.3c-0.4,0.2-1,0.4-1.4,0.6c-1,0.4-1.8,0.8-2.9,1.3c-0.3,0.1-0.7,0.3-1,0.4
	c-1,0.4-2.1,0.8-3.1,1.3c-0.2,0.1-0.5,0.2-0.7,0.3c-1.3,0.4-2.5,1-3.8,1.4c-0.1,0-0.3,0.1-0.4,0.1c-1.4,0.5-2.9,1-4.5,1.4
	c-0.1,0-0.1,0-0.2,0c-1.1,0.3-2.2,0.6-3.3,0.9c0.1,0,0.2,0,0.3-0.1c-0.1,0-0.2,0.1-0.3,0.1c-1.2,0.3-2.4,0.7-3.7,1
	c-0.3,0.1-0.7,0.2-1,0.3c-1.2,0.3-2.5,0.6-3.8,0.9c-0.3,0.1-0.6,0.1-0.9,0.2c-1.4,0.3-2.7,0.6-4.1,0.9c-0.1,0-0.3,0.1-0.4,0.1
	c-1.7,0.4-3.5,0.7-5.2,1.1c-1.5,0.3-3.1,0.6-4.7,0.9h-0.1c-5.1,0.9-10.3,1.8-15.7,2.6c-102.3,14.3-265.6-1.3-366.2-19.3
	c25.9,4.6,56,9.1,88,13v-0.1c-32-3.8-62.1-8.3-87.9-13c25.8,4.6,55.9,9.1,87.9,12.9c0-0.1,0-0.1,0.1-0.2c-32-3.8-61.9-8.3-87.7-12.9
	c-0.2,0-0.5-0.1-0.7-0.1c-1.7-0.3-3.4-0.6-5-1c-0.4-0.1-0.8-0.1-1.3-0.2c-1.5-0.2-3.1-0.5-4.6-0.8c-0.5-0.1-1-0.2-1.4-0.3
	c-1.3-0.2-2.4-0.5-3.6-0.7c-0.4-0.1-0.7-0.1-1-0.2c-0.7-0.2-1.4-0.3-2.1-0.5c-0.2-0.1-0.3-0.1-0.5-0.2c-0.4-0.1-1-0.2-1.4-0.4
	c-0.2-0.1-0.5-0.2-0.7-0.3c-0.4-0.1-0.7-0.3-1-0.4s-0.5-0.3-0.8-0.4s-0.6-0.2-0.8-0.4c-0.3-0.1-0.5-0.3-0.8-0.5s-0.5-0.3-0.7-0.5
	c-0.3-0.2-0.6-0.4-0.8-0.6c-0.2-0.2-0.4-0.3-0.6-0.5c-0.2-0.2-0.5-0.5-0.7-0.7s-0.3-0.3-0.5-0.5c-0.3-0.2-0.5-0.5-0.7-0.8
	c-0.1-0.2-0.3-0.3-0.4-0.5c-0.2-0.3-0.4-0.6-0.6-1c-0.2-0.1-0.3-0.3-0.4-0.5c-0.2-0.3-0.4-0.7-0.6-1c-0.1-0.2-0.2-0.4-0.3-0.6
	c-0.2-0.4-0.3-0.7-0.5-1.1c0-0.2-0.1-0.4-0.2-0.6c-0.1-0.4-0.3-0.8-0.4-1.3c-0.1-0.2-0.1-0.4-0.2-0.6c-0.2-0.4-0.3-1-0.4-1.4
	c-0.1-0.2-0.2-0.4-0.2-0.6c-0.1-0.5-0.2-1-0.3-1.4c0-0.2-0.1-0.4-0.1-0.6c-0.1-0.5-0.1-1-0.2-1.5c0-0.2-0.1-0.4-0.1-0.6
	c-0.1-0.5-0.2-1.1-0.2-1.7c0-0.2,0-0.4,0-0.6c0-0.5-0.1-1.1-0.1-1.7c0-0.2,0-0.4,0-0.6c0-0.6,0-1.3,0-1.8c0-0.1,0-0.3,0-0.5
	c0.1-0.7,0.1-1.4,0.1-2.1c0-0.2,0-0.3,0-0.5c0-0.7,0-1.4,0.1-2.1c0-0.1,0-0.3,0-0.4c0-0.7,0.1-1.4,0.2-2.2c0-0.2,0-0.3,0-0.4
	c0.1-0.8,0.2-1.7,0.3-2.5c0-0.1,0-0.2,0-0.3c0.1-1,0.3-1.7,0.4-2.7c0-0.1,0-0.1,0-0.2c2.9-17.6,11-39.7,22.3-64.2c0-0.1,0-0.1,0-0.1
	c0.6-1.3,1.3-2.5,1.8-3.9c0,0,0.1-0.1,0.1-0.2c0.6-1.3,1.3-2.5,1.8-3.8c0.1-0.1,0.1-0.3,0.2-0.4c0.6-1.3,1.3-2.5,1.8-3.7
	c0.1-0.2,0.2-0.4,0.3-0.6c0.6-1.1,1.3-2.4,1.8-3.6c0.1-0.3,0.2-0.5,0.3-0.7c0.5-1.3,1.1-2.4,1.7-3.6c0.1-0.3,0.3-0.5,0.4-0.8
	c0.5-1.3,1.1-2.4,1.7-3.5c0.2-0.3,0.3-0.6,0.5-1c0.6-1.1,1.1-2.2,1.7-3.4c0.1-0.3,0.3-0.7,0.5-1c0.6-1.1,1.1-2.1,1.7-3.3
	c0.2-0.4,0.4-0.8,0.6-1.3c0.6-1,1.1-2.1,1.7-3.2c0.2-0.4,0.5-1,0.7-1.4c0.6-1,1.1-2.1,1.7-3.1c0.3-0.5,0.5-1,0.8-1.4
	c0.5-1,1.1-2,1.7-2.9c0.3-0.5,0.6-1,1-1.5c0.5-1,1.1-2,1.7-2.9c0.4-0.6,0.7-1.1,1-1.7c0.5-1,1-1.8,1.5-2.8c0.4-0.7,0.7-1.4,1.1-2
	c0.5-0.8,1-1.7,1.5-2.5c0.4-0.7,0.8-1.4,1.3-2.1c0.4-0.8,0.8-1.5,1.4-2.4c0.5-0.8,1-1.7,1.4-2.5c0.4-0.7,0.8-1.4,1.3-2.1
	c0.6-0.8,1.1-1.7,1.7-2.7c0.4-0.6,0.7-1.3,1.1-1.8c0.6-1.1,1.3-2.1,1.8-3.2c0.2-0.5,0.5-1,0.8-1.4c0.7-1.3,1.5-2.5,2.2-3.8
	c0.2-0.3,0.3-0.5,0.5-0.8c7.4-12,15.1-24.1,23-36.1l-38.9-48.9l0.3,0.1l-0.2-0.2l62.3,14.5l0,0l0,0l0,0
	c26.8-37.9,54.5-72.7,78.5-98.2c-36.3,2.1-106.8,4.4-113.1-6.4c-4.1-7.1,10.7-13.6,27.6-18.5c17.7-5.2,37.8-8.7,40.5-9.2
	c-2.5-0.8-69-22.4-86.8-29.6c-4.7-1.9-4.1-3.6,0-5c14.8-5.5,78.3-7.7,83.7-7.9c-3.3-1.6-68.1-32.8-50-39.2c0.1,0,0.1,0,0.2-0.1
	c0,0,0,0,0.1,0c21.8-7.6,95.6,21.8,100.4,23.7c-0.2-2.7-2-34.8,5.3-36.6c1.3-0.5,2.9,0.1,4.8,1.9c12.9,12.4,35.6,48.2,35.6,48.2
	s15.8,23.8,21.1,42.5l0,0c39.3,29,80.9,79.3,117.2,134.6l-0.3,0.1c0,0,0,0,0,0.1l0.3-0.1l60.6-14.3l-38.9,49
	c12.6,21.1,24.3,42.4,34.7,63.2c0.1,0.2,0.2,0.4,0.3,0.6c0,0.2,0.1,0.2,0.2,0.1C514.1,531.3,533,587.2,529.3,614.1z"/>
<path fill="#FFFF00" d="M483.2,469.5c-0.1-0.2-0.2-0.4-0.3-0.6c-10.3-20.7-22.1-42-34.7-63.2v0.1l-0.1,0.2l-3.1,4l-35.1,7.4h-0.1
	c11.4,4.5,19.9,12.1,23.2,22.5c1.4,4.4,1.7,8.8,1.2,13.4c-0.2,1-0.3,2.1-0.5,3c-0.2,1.1-0.6,2.2-0.9,3.4c-0.9,2.9-2.2,5.9-3.8,8.7
	c-0.3,0.6-0.7,1.2-1.1,1.8c-0.6,1-1.3,1.9-1.9,2.9c-0.1,0.2-0.3,0.3-0.4,0.5c-0.1,0.1-0.2,0.2-0.3,0.3c-0.1,0.1-0.2,0.2-0.3,0.3
	c-0.9,1.1-1.7,2.3-2.7,3.4c-1.3,1.5-2.7,3-4.2,4.5c-9,8.7-21.2,16.1-35.5,20.7c-6.2,2-12.3,3.3-18.3,4c-3.3,0.4-6.5,0.6-9.7,0.6
	c-9.4,0.1-18.2-1.3-25.7-4.1l66.9,62l-16.5,2l-59,7.2c69.4,3.6,124.3,36.5,126.9,77.3c16.1-2.2,30.6-5.2,43.2-9.1c0.1,0,0.1,0,0.2,0
	c1.5-0.4,2.9-1,4.5-1.4c0.1,0,0.3-0.1,0.4-0.1c1.4-0.4,2.5-1,3.8-1.4c0.2-0.1,0.5-0.2,0.7-0.3c1-0.4,2.1-0.8,3.1-1.3
	c0.3-0.1,0.7-0.3,1-0.4c1-0.4,2-0.8,2.9-1.3c0.4-0.2,1-0.4,1.4-0.6c1-0.4,1.7-0.8,2.5-1.3c0.5-0.2,1-0.4,1.4-0.7
	c0.8-0.4,1.7-0.8,2.4-1.3c0.4-0.2,1-0.5,1.4-0.7c0.6-0.3,1.3-0.7,1.8-1s1-0.6,1.7-1c0.5-0.3,1-0.7,1.5-1c0.3-0.2,0.5-0.3,0.8-0.5
	c1.9-1.4,3.5-3.3,4.7-5.6c1.2-2.5,2-5.4,2.5-8.9c3.7-26.9-15.2-82.8-45.9-144.5C483.3,469.7,483.2,469.7,483.2,469.5z"/>
<path fill="#CCCCCC" d="M169.4,645.8c92.5,10.9,202,16.8,278,6.3c-2.8-40.9-57.8-73.9-127.4-77.3l-27.9,3.4l-7.5-2.5
	c-16.8,1.7-32.5,5-46.7,9.8c-0.2,0.1-0.5,0.2-0.7,0.2c-0.2,0.1-0.5,0.2-0.7,0.2c-24.4,8.4-43.8,21-55.5,36.1
	c-5.6,7.3-9.4,15.2-10.9,23.4c-0.1,0-0.2,0-0.2,0s0,0-0.1,0v0.1c-0.1,0-0.2,0-0.2,0c0,0.1,0,0.2-0.1,0.2
	C169.5,645.7,169.5,645.7,169.4,645.8"/>
<path d="M127.3,266.1c6.3,10.8,76.6,8.4,112.9,6.4l0.1-0.1c24.1-25.6,44.5-41.7,56.5-42.1c0.4,0,0.7,0,1.1,0
	c1.9,0.1,3.5,0.6,4.8,1.5c2.1,1.4,4.4,2.9,6.6,4.6c-5.3-18.7-21.1-42.5-21.1-42.5s-22.7-35.8-35.6-48.2c-1.9-1.9-3.5-2.4-4.8-1.9
	c-7.3,2.6-5.1,36.7-5.1,36.7s-0.1,0-0.2-0.1c-4.8-1.9-78.6-31.4-100.4-23.7c0,0,0,0-0.1,0c-18.4,6.6,50.2,39.2,50.2,39.2
	s-0.1,0-0.4,0c-5.4,0.2-68.9,2.4-83.7,7.9c-3.9,1.4-4.4,3.1,0.3,5c18.2,7.4,86.9,29.6,86.9,29.6s-0.1,0-0.3,0.1
	c-2.7,0.5-22.8,3.9-40.5,9.2C137.9,252.6,123.3,259.1,127.3,266.1z"/>
<path fill="#FFFF00" d="M236.6,585.8c0.2-0.1,0.5-0.2,0.7-0.2c0.2-0.1,0.5-0.2,0.7-0.2c5.2-1.7,10.6-3.3,16.2-4.7
	c1.9-0.5,3.9-0.9,5.8-1.3l0,0c0.7-0.1,1.4-0.3,2.1-0.4l0,0c1.6-0.3,3.2-0.6,4.8-0.9l0,0c0.8-0.1,1.5-0.3,2.3-0.4
	c4.3-0.7,8.6-1.3,13.1-1.8c0.8-0.1,1.6-0.2,2.4-0.3l0,0l-87.8-29.8l0.1-0.1l0.1-0.1l55.3-36.6c-0.1,0-0.2,0-0.3,0.1H252
	c-14.2,3.5-31.5,2.8-48.9-2.7c-15.7-5-28.9-13.2-38.4-22.8c0,0,0,0-0.1-0.1l-0.1-0.1c-13-13.1-19-29.1-14.4-43.3
	c3.2-10,10.9-17.5,21.4-22.4h-0.2l-27.3-5.8l0,0h-0.2l-5.3-6.6c-7.8,11.9-15.5,24-22.9,35.9c-0.2,0.3-0.3,0.5-0.5,0.8
	c-0.7,1.3-1.5,2.5-2.2,3.8c-0.3,0.5-0.6,1-0.8,1.4c-0.6,1-1.3,2.1-1.8,3.2c-0.4,0.6-0.7,1.3-1.1,1.8c-0.5,1-1,1.8-1.7,2.7
	c-0.4,0.7-0.8,1.4-1.3,2.1c-0.5,0.8-1,1.7-1.4,2.5c-0.5,0.8-1,1.5-1.4,2.4c-0.4,0.7-0.8,1.4-1.3,2.1c-0.5,0.8-1,1.7-1.5,2.5
	c-0.4,0.6-0.7,1.3-1.1,2c-0.5,1-1,1.8-1.5,2.8c-0.3,0.6-0.6,1.1-1,1.7c-0.5,1-1.1,2-1.7,2.9c-0.3,0.5-0.6,1-1,1.5
	c-0.5,1-1.1,2.1-1.7,2.9c-0.3,0.5-0.5,1-0.8,1.4c-0.6,1-1.1,2.1-1.7,3.1c-0.2,0.4-0.5,1-0.7,1.4c-0.6,1-1.1,2.1-1.7,3.2
	c-0.2,0.4-0.4,0.8-0.6,1.3c-0.6,1.1-1.1,2.1-1.7,3.3c-0.2,0.3-0.4,0.7-0.5,1c-0.6,1.1-1.1,2.2-1.7,3.4c-0.2,0.3-0.3,0.6-0.5,1
	c-0.6,1.1-1.3,2.2-1.7,3.5c-0.1,0.3-0.3,0.5-0.4,0.8c-0.6,1.3-1.3,2.4-1.7,3.6c-0.1,0.2-0.2,0.4-0.3,0.7c-0.6,1.3-1.3,2.5-1.8,3.6
	c-0.1,0.2-0.2,0.4-0.3,0.6c-0.6,1.3-1.3,2.5-1.8,3.7c-0.1,0.1-0.1,0.3-0.2,0.4c-0.6,1.3-1.3,2.5-1.8,3.8c0,0.1-0.1,0.2-0.1,0.2
	c-0.6,1.4-1.3,2.7-1.8,3.9c0,0,0,0,0,0.1c-11.3,24.6-19.3,46.7-22.3,64.2c0,0.1,0,0.1,0,0.2c-0.1,1-0.3,1.7-0.4,2.7
	c0,0.1,0,0.2,0,0.3c-0.1,0.8-0.2,1.7-0.3,2.5c0,0.1,0,0.2,0,0.4c-0.1,0.8-0.2,1.5-0.2,2.2c0,0.1,0,0.3,0,0.4
	c-0.1,0.7-0.1,1.4-0.1,2.1c0,0.2,0,0.3,0,0.5c0,0.7,0,1.4-0.1,2.1c0,0.2,0,0.4,0,0.5c0,0.6,0,1.3,0,1.8c0,0.2,0,0.4,0,0.6
	c0,0.6,0.1,1.3,0.1,1.7c0,0.2,0,0.4,0,0.6c0,0.5,0.1,1.1,0.2,1.7c0,0.2,0.1,0.4,0.1,0.6c0.1,0.5,0.1,1,0.2,1.5
	c0,0.2,0.1,0.4,0.1,0.6c0.1,0.5,0.2,1,0.3,1.4c0,0.2,0.1,0.4,0.2,0.6c0.1,0.4,0.2,1,0.4,1.4c0.1,0.2,0.1,0.4,0.2,0.6
	c0.1,0.4,0.3,0.8,0.4,1.3c0.1,0.2,0.2,0.4,0.2,0.6c0.2,0.4,0.3,0.7,0.5,1.1c0.1,0.2,0.2,0.4,0.3,0.6c0.2,0.3,0.4,0.7,0.6,1
	c0.1,0.2,0.2,0.4,0.4,0.5c0.2,0.3,0.4,0.6,0.6,1c0.1,0.2,0.3,0.3,0.4,0.5c0.2,0.3,0.4,0.6,0.7,0.8c0.2,0.2,0.3,0.3,0.5,0.5
	s0.5,0.5,0.7,0.7s0.4,0.3,0.6,0.5c0.2,0.2,0.5,0.4,0.8,0.6c0.2,0.2,0.4,0.3,0.7,0.5s0.5,0.4,0.8,0.5c0.2,0.2,0.5,0.3,0.8,0.4
	s0.5,0.3,0.8,0.4c0.3,0.1,0.6,0.3,1,0.4c0.2,0.1,0.5,0.2,0.7,0.3c0.4,0.2,1,0.3,1.4,0.4c0.2,0.1,0.3,0.1,0.5,0.2
	c0.6,0.2,1.4,0.3,2.1,0.5c0.3,0.1,0.6,0.1,1,0.2c1.3,0.2,2.4,0.5,3.6,0.7c0.5,0.1,1,0.2,1.4,0.3c1.5,0.3,3.1,0.6,4.6,0.8
	c0.4,0.1,0.8,0.1,1.3,0.2c1.7,0.3,3.4,0.6,5,1c0.2,0,0.5,0.1,0.7,0.1c25.8,4.6,55.8,9.1,87.7,12.9c0,0,0,0,0.1,0s0.2,0,0.2,0
	c1.5-8.2,5.3-16.1,10.9-23.4C192.6,606.9,212.2,594.3,236.6,585.8z"/>
<path fill="#FFFF00" d="M293.6,401.7v42.1h-0.1l0,0l-24.9-5.3c0.7,0.7,1.3,1.3,2,2c0.6,0.7,1.3,1.3,1.9,2c1.2,1.4,2.3,2.8,3.4,4.2
	c0.5,0.7,1,1.4,1.5,2.1c5.3,7.8,8.3,16.2,8.3,24.4l0,0c0,3.3-0.5,6.7-1.5,9.9c-0.7,2.1-1.6,4.2-2.8,6.2c-0.2,0.2-0.2,0.5-0.4,0.7
	l-0.1,0.1l0,0l19.6-13l0,0l0,0l4.8,4.5c-0.1-0.3-0.2-0.6-0.3-0.9c-4.7-14.7,2.4-31.4,16.9-44.5l-19.9,4.2v-0.1l0,0h-0.1h-0.1v-40.1
	h0.1v-0.1L426.2,371l0.3-0.1c-36.2-55.2-77.9-105.6-117.2-134.6l0,0c-2.1-1.7-4.4-3.2-6.6-4.6c-1.4-1-2.9-1.4-4.8-1.5
	c-0.4,0-0.7,0-1.1,0c-12,0.4-32.4,16.5-56.5,42.1l-0.1,0.1c0,0,0,0-0.1,0.1c-24,25.4-51.6,60.2-78.5,98.2l0,0l0.5,0.1L293.6,401.7z"
	/>
<path fill="#F9F9F9" d="M171.4,417.8c-10.5,4.9-18.3,12.4-21.4,22.4c-4.6,14.2,1.4,30.2,14.4,43.3l0.1,0.1
	c9.5,9.6,22.7,17.7,38.3,22.7c17.5,5.6,35,6.3,49.3,2.6h0.1h0.1c0,0,0.1,0,0.1-0.1l18.9-12.5l9.6-6.4l0.1-0.1
	c0.2-0.2,0.2-0.5,0.4-0.7c1.1-1.9,2.1-4,2.8-6.3c1-3.2,1.5-6.4,1.5-9.8c0-8.1-3-16.5-8.3-24.4c-0.5-0.7-1-1.4-1.5-2.1
	c-1-1.4-2.2-2.8-3.4-4.2c-0.6-0.7-1.2-1.4-1.9-2c-0.6-0.7-1.3-1.3-2-2l0,0c0,0,0,0-0.1-0.1h-0.1l-97-20.7L171.4,417.8
	C171.5,417.7,171.5,417.7,171.4,417.8C171.4,417.7,171.4,417.8,171.4,417.8z M230.1,453.6c2.1-6.9,10.2-10.7,19.9-10.4
	c0.5,0,1,0,1.5,0.1c2.8,0.2,5.7,0.7,8.6,1.7s5.6,2.1,8.1,3.7c2,1.2,3.7,2.6,5.2,4c5.4,5,7.9,11.2,6.1,16.9c-2.9,9.1-16.3,13-30,8.7
	c-5.6-1.8-10.3-4.7-13.8-8.1C230.8,465.1,228.4,459,230.1,453.6z"/>
<path d="M232.9,449.1c-1.2,1.3-2.1,2.9-2.7,4.6c-1.3,4.3-0.2,8.9,2.8,13c0.8,1.1,1.7,2.2,2.8,3.3l0,0l0,0l0,0
	c3.5,3.4,8.3,6.3,13.8,8.1c13.7,4.5,27.1,0.5,30-8.7c1.7-5.5-0.8-11.8-6.1-16.8c-1.5-1.5-3.3-2.8-5.2-4c-2.5-1.5-5.2-2.7-8.1-3.7
	c-2.9-0.9-5.8-1.5-8.6-1.7c-0.5,0-1-0.1-1.5-0.1C242.8,443,236.5,445.2,232.9,449.1z"/>
<polygon fill="#AA4400" points="138.3,405.1 138.5,405.2 143.7,411.8 143.9,411.9 171.4,417.7 171.5,417.7 171.5,417.8 268.5,438.4 
	268.6,438.5 293.6,443.8 293.6,443.8 293.6,401.7 162.2,370.9 161.7,370.7 161.7,370.7 99.4,356.2 99.6,356.4 138.2,405 "/>
<path fill="#F9F9F9" d="M382.6,502.9c14.4-4.6,26.6-12,35.5-20.7l0,0l0,0c1.5-1.4,2.9-2.9,4.2-4.4l0,0l0,0c1-1.1,1.9-2.2,2.7-3.4
	c0.3-0.4,0.6-0.8,0.9-1.2c0.6-1,1.4-1.9,1.9-2.9c0.4-0.6,0.7-1.2,1.1-1.8c1.6-2.9,2.9-5.8,3.8-8.7l0,0c0.3-1.1,0.6-2.2,0.9-3.4l0,0
	c0.2-1,0.4-2.1,0.5-3c0,0,0,0,0-0.1c0.1-0.5,0.1-1.1,0.2-1.6c0-0.5,0.1-1.1,0.1-1.6V450c0-1.1,0-2.3-0.1-3.4
	c-0.2-2.2-0.6-4.4-1.3-6.6c-0.2-0.6-0.4-1.3-0.7-1.9c-0.5-1.2-1.1-2.4-1.7-3.6c-1.6-2.9-3.7-5.5-6.2-7.9c-0.8-0.7-1.6-1.4-2.4-2.1
	c-1.3-1.1-2.7-2.1-4.2-3c-2.5-1.5-5.1-2.9-8-4l-87.4,18.7h-0.1h-0.1l-0.1,0.1c0,0,0,0-0.1,0.1l0,0c-14.5,13.1-21.6,29.8-16.9,44.5
	c0.1,0.3,0.2,0.6,0.3,0.9v0.1l0.1,0.1l1.7,1.5l21.7,20l0.1,0.1l0,0h0.1c7.5,2.8,16.3,4.2,25.7,4.1c3.1,0,6.4-0.3,9.6-0.6
	C370.3,506.2,376.5,504.8,382.6,502.9z M355.8,462c-0.2,0.2-0.2,0.4-0.3,0.6c0,0.1-0.1,0.2-0.1,0.2c-1.4,2.8-3.7,5.4-6.7,7.7
	c-0.4,0.3-0.8,0.6-1.3,0.9c-0.8,0.5-1.5,1-2.3,1.5c-2.1,1.2-4.5,2.3-7.1,3.1c-13,4.2-25.9,0.5-28.7-8.2c-1.8-5.7,1.1-12.2,7.1-17.2
	c3.1-2.6,7.1-4.8,11.5-6.2c1.2-0.4,2.4-0.7,3.7-1c11.7-2.5,22.5,1.3,25,9.1C357.5,455.8,357.2,458.9,355.8,462z"/>
<path d="M331.5,443.6c-1.2,0.3-2.4,0.6-3.6,1c-4.5,1.4-8.4,3.7-11.5,6.2c-0.7,0.6-1.4,1.3-2.1,1.9c-1,1-1.8,2-2.5,3.1
	s-1.3,2.1-1.8,3.3c-0.5,1.1-0.8,2.2-1,3.3c-0.1,0.4-0.1,0.7-0.1,1.1s0,0.7,0,1.1s0,0.7,0.1,1.1c0.1,0.7,0.2,1.5,0.5,2.2
	c2.8,8.7,15.6,12.4,28.6,8.2c3.5-1.1,6.7-2.7,9.4-4.6c0.4-0.3,0.8-0.6,1.3-0.9c3-2.3,5.3-4.9,6.7-7.7c0-0.1,0.1-0.2,0.1-0.2
	c0.1-0.2,0.2-0.4,0.3-0.6c1.4-3.1,1.7-6.3,0.8-9.3C354.1,444.9,343.3,441.1,331.5,443.6z"/>
<polygon fill="#AA4400" points="301.9,400.3 301.9,440.4 302,440.4 302.1,440.3 322.1,436.1 322.2,436.1 322.2,436.1 322.3,436.1 
	409.8,417.4 409.8,417.4 444.9,410 448,405.9 448.1,405.8 448.2,405.7 487.2,356.7 426.5,371 426.3,371.1 302,400.3 "/>
<polygon fill="#FF7F2A" points="328.9,503.4 328.9,503.4 328.8,503.3 307.1,483.3 305.5,481.8 300.5,477.1 300.5,477.1 280.9,490.1 
	280.8,490.1 271.3,496.4 252.4,508.9 252.4,508.9 197,545.6 196.8,545.7 196.7,545.7 284.6,575.5 284.6,575.6 292,578.1 320,574.8 
	320.5,574.7 379.4,567.5 395.8,565.5 "/>
<path fill="#CCCCCC" d="M81.6,632"/>
</svg>
