<?xml version="1.0" encoding="utf-8"?>
<!-- Generator: Adobe Illustrator 18.1.1, SVG Export Plug-In . SVG Version: 6.00 Build 0)  -->
<svg version="1.1" id="Layer_1" xmlns="http://www.w3.org/2000/svg" xmlns:xlink="http://www.w3.org/1999/xlink" x="0px" y="0px"
	 viewBox="0 0 612 792" enable-background="new 0 0 612 792" xml:space="preserve">
<g>
	<path d="M381.2,69.7c1.9-4.4,6.2-13.9,15.9-21.9c16.3-13.4,35.8-12.4,43.8-11.9c8.1,0.4,19,1,29.9,8.6c9.4,6.6,13.7,14.8,14.5,16.6
		c0,0,10,20-0.6,42.4c-0.6,1.4-1.4,2.8-1.4,2.8c-1.8,2.9-3.4,4.3-9.9,15.2c-1.3,2.2-4,5.7-8,10c-2.8,3-4.8,5.2-8,7.3
		c-4.3,2.9-8.7,4.3-10.6,4.7c-10.5,1.9-15.9-14.4-33.1-25.8c-18.5-12.3-30.6-5.7-36.4-16.6C372,91.1,377.7,77.8,381.2,69.7z"/>
	<path d="M143.2,124.7c-10.5-6.8-23.1-15.2-27.2-31.1c-4.4-17.7,4.7-32.6,6.6-35.8c7.1-11.6,17.1-17.1,21.3-19.2
		c4-2.2,15.1-7.7,29.2-6.6c22.5,1.8,35.9,19.4,42.4,27.8c15.7,20.5,13.4,38.2,12.6,39.8c-0.1,0.1-0.1,0.3-0.1,0.3
		c-0.4,0.6-1.3,1.6-3.8,3.7c-9.6,7.5-19,9.2-25.2,11.3c-20.2,6.5-20,18.8-33.8,19.2C157.6,134.2,152.3,130.7,143.2,124.7z"/>
	<path fill="#FFF2D7" d="M175.7,343.6c10.4,8.6,26.6,20.2,48.4,29.2c30.6,12.5,56.5,13.5,71,13.9c25,0.8,47.4,1.4,71.6-10
		c30.6-14.3,35.7-33.9,53-31.1c18.2,2.9,30.2,27.1,35.8,38.5c5.7,11.5,7.6,20.9,10,31.9c6.2,29.7,3.4,51.6,0.6,71
		c-2,14.3-4,19.7-8,24.5c-8.6,10.6-22.5,13.3-29.2,14.5c-4,0.8-19.1,4.8-21.3,0.6c-1.3-2.5,3.2-6.1,6.6-11.3
		c7.5-11.4,6.1-24.3,4.7-37.8c-1.3-11.8-3.4-31.5-19.2-48.4c-4.4-4.7-24.9-25.2-50.3-21.3c-12.3,1.9-21.1,8.7-25.2,11.9
		c-5.9,4.7-14.7,11.3-18,22.5c-1.8,5.9-1.1,10.4-2.7,10.6c-2.8,0.5-4.3-14.2-14.5-26.6c-12.6-15.1-31.2-18-35.8-18.6
		c-4.7-0.6-15.6-1.9-27.8,3.3c-13.3,5.7-20.1,15.6-24.5,21.9c-9.7,14.2-11.8,27.8-12.6,33.8c-0.9,6.2-2,15.2,0.6,25.8
		c4.7,18.7,16.7,24.5,13.9,29.9c-3.3,6.6-23.9,3.4-37.8-2c-6.5-2.5-18.8-7.5-27.8-19.9c-9.9-13.7-9.6-28.3-9.2-47.7
		c0.3-16.4,3.2-28.2,8-47.7c0,0,3.3-13.3,11.3-33.1c4.2-10.4,7.2-16.3,13.3-21.3C165.9,346.3,171.8,344.5,175.7,343.6z"/>
	<path fill="#613B26" d="M143.8,582.9c1.8,3.2,10.8,18.8,29.2,23.1c3.2,0.8,15.3,3.3,27.8-2.7c17.8-8.5,19.7-26.4,31.1-26.6
		c5.8-0.1,9.7,4.6,13.9,8.6c14.9,14.4,42,29.2,65.7,27.2c29.7-2.5,52.7-31.4,54-34.7c0-0.1,0.1-0.3,0.3-0.4
		c2.3-1.5,11.1,13.8,25.8,22.5c6.1,3.5,15.4,9.1,25.2,6.6c12.9-3.3,13.2-17.1,27.8-20.5c7.8-1.9,14.5,0.4,17.2,1.3
		c1.5,0.5,14.9,5.3,15.3,12.6c0.1,4.2-4,6.5-8,10.6c-7.3,7.7-7.1,17-10.6,33.1c-3.2,14.7-0.5,26.6,3.3,45.8
		c2,10.1,3.9,14.4,5.3,17.2c4,8,8.3,11,7.3,12.6c-1.8,2.9-18.1-3.4-29.2-9.2c-15.9-8.3-23.8-12.5-29.9-21.3
		c-4.8-7-6.6-13.7-13.9-16.6c-4.3-1.6-8.5-1.1-11.3-0.6c-17,3-30,13-37.8,17.2c-6.1,3.3-22.9,2.9-56.4,2c-53-1.5-59.5-3.5-66.3-7.3
		c-16.7-9.4-19.2-20.2-29.9-19.2c-11.4,1-13.3,13.9-34.5,31.1c-9.7,8-26.3,19-30.5,15.3c-2.8-2.5,2.5-9.6,5.9-23.1
		c0.8-3,6.6-27.7-2-51.7c-7.3-20.6-20-25.8-17.2-36.4C124.2,590.5,135.2,585.6,143.8,582.9z"/>
	<path fill="#814F33" d="M476.7,599.5c6.1-2.9,15.2-7.1,26.6-11.3c17-6.2,25.7-9.2,35.8-8.6c14.4,0.9,24.9,7.6,30.5,11.3
		c8.1,5.3,19.1,12.4,23.9,25.2c5.7,15.3-0.9,30-8,45.8c-3.7,8.2-11.3,24.8-29.2,39.1c-17.1,13.8-33.9,17.8-43.1,19.9
		c-15.6,3.5-24.9,5.7-33.8,0.6c-11.1-6.3-13.9-19.9-18-38.5c-1.8-8.6-4.6-22.1-2-39.8C462.4,622.5,471.2,607.6,476.7,599.5z"/>
	<path fill="#814F33" d="M129.1,718.1c5.7-9.7,9.1-18.3,11.3-24.5c3.7-10.9,7.7-22.5,5.9-37.2c-0.6-5.4-2.3-9.9-5.3-18.6
		c-7.8-22.1-11.9-33.1-19.2-40.5c-13-12.8-30.5-15.4-42.4-17.2c-6.2-0.9-12.1-1.8-19.9-0.6c-3.8,0.5-22.8,3.3-33.8,18
		c-8.7,11.5-7.8,24.3-6.6,42.4c1,15.3,2.3,33.4,15.3,50.3c12.1,15.9,27.8,22.1,35.8,25.2C95.9,725.3,119.3,720.8,129.1,718.1z"/>
	<path fill="#814F33" d="M526.1,395.8c-5.8-16-15.3-40.9-40.5-57.7c-12.5-8.4-24.8-12-33.3-13.8c-2.9,6.9-3.7,8.3-0.5-0.1
		c0.2,0,0.3,0.1,0.5,0.1c7-16.8,25.9-66.5,27.3-88.3c0.6-11.5,2.1-44.8-18-74.9c-10.6-15.7-23.7-25.7-34.5-33.8
		c-20.8-15.6-39.2-22.7-43.8-24.5c-21-7.9-37.8-9.3-54.4-10.6c0,0-37.7-3-82.9,6.6c-5.9,1.3-10.5,2.5-11.6,2.8
		c-4.5,1-20.1,4.6-39.5,14.5c-5.9,3.1-18.6,9-31.4,20c-0.9,0.8-1.7,1.5-2,1.8c-13.1,11.6-20.6,22.9-22.6,25.9
		c-4.1,6.3-9.6,15-13.3,27.8c-10.4,36.7,4.7,72.2,10.6,85.5c8.8,20,20.2,28.3,15.9,37.2c-3.3,6.7-10.8,5.2-26.6,13.9
		c-1.1,0.6-16.4,9.2-29.2,23.9c-10.5,12.2-15.1,23.4-20.5,37.2c-13.4,33.6-13.4,61.7-13.3,68.3c0.1,5.4,0.5,11.4,0.9,17.7
		c1.4,20.8,2.2,31.1,3.8,38.1c5.4,22,21.9,43.8,38.5,51.1c0.7,0.2,10.1,4.4,22.5,9.2c8.1,3.2,8.9,3.3,11.3,4.7
		c10.3,5.9,11.8,13.1,18,19.2c9.2,8.9,25.6,12.1,37.2,8.6c19-5.8,25.2-29.7,37.2-27.2c3.9,0.8,5.9,3.8,8.6,2.7
		c4.4-2,3.7-12.4,3.3-18.6c-0.6-9.6-1-16.3-5.9-23.1c-5.7-7.8-13.7-10.8-18.6-12.6c-6-2.2-10.3-2.4-18-3.2
		c-18.6-1.8-27.8-2.4-31.1-3.4c-1.4-0.4-27-9.5-37.8-33.8c-4.5-10.2-4.9-19.7-5.3-31.1c-0.1-2.6-0.5-15.9,3.3-33.1
		c1-5,3.2-13.2,8.6-26.6c11.9-29.2,20.6-50.7,33.8-51.7c6.7-0.5,9,4.7,22.5,13.9c14.4,9.8,26.8,14,42.4,19.2
		c11.5,3.9,37.6,12.4,69.6,10c14.7-1.2,58.8-4.4,93.5-31.9c5.9-4.7,12.6-10.8,21.3-10c15.3,1.4,25.6,22.8,31.9,35.8
		c1.6,3.2,7.1,15,11.3,33.8c6.4,28.3,4.3,49.7,2.7,66.9c-2.3,22.8-5.8,28.5-8.6,31.9c-10.2,12.4-26.5,14.8-29.9,15.3
		c-2.9,0.4-5.4,0.5-7.6,0.4c-6.7-0.4-15.1-2.3-15.9-2.4c-10.9-2.6-10-3.6-13.7-3.9c-9.1-0.6-18.8,5.5-23.9,13.3
		c-7,11-3.5,23.3-1.3,30.5c6.5,22,25.3,31.8,27.8,33.1c4.4,2.1,23.1,11.6,34.5,3.9c7.4-5.2,6-14.1,14.5-18c6.6-3.1,12.6-0.2,18,0.6
		c18.6,2.5,36.7-19.7,45-29.9C537.5,519.4,546.6,452,526.1,395.8z M359.5,218c0.9-3.8,6.2-5.9,6.8-6.2c3.7-1.5,8.2-1.6,11.5,0
		c8.6,4.1,8.6,19.3,3.4,22.1C375,237.2,357.6,225.5,359.5,218z M219.5,210.9c3.3-1.8,7.7-1.6,11.3,0c0.6,0.3,5.8,2.7,6.6,6.6
		c1.8,8.3-15.3,20.8-21.2,17.3C211.1,231.8,211.1,215.4,219.5,210.9z M369.6,327.5c-21.8,28-55.3,30.2-60.3,30.5
		c-28.6,1.5-49-12.5-56.4-18c-8.2-5.9-23.5-16.8-30.5-37.8c-6.4-18.5-2.8-34.8-0.8-41.7c6.8-7.1,18.1-17.1,34.5-24.5
		c4.4-2,23.1-10.1,48.4-10c5.3,0,14.7,0.1,26.6,3.3c11.6,3.2,20.1,7.7,30.5,13.3c10.9,5.8,16.3,8.9,18.6,11.3
		C394.2,269.3,387.2,305,369.6,327.5z"/>
	<path d="M237.4,217.5c-0.8-3.9-6-6.3-6.6-6.6c-3.6-1.6-8-1.8-11.3,0c-8.4,4.5-8.4,20.9-3.3,23.9
		C222.1,238.3,239.2,225.8,237.4,217.5z"/>
	<path d="M381.2,233.9c5.2-2.8,5.2-18-3.4-22.1c-3.3-1.6-7.8-1.5-11.5,0c-0.6,0.3-5.9,2.4-6.8,6.2
		C357.6,225.5,375,237.2,381.2,233.9z"/>
	<path fill="#FFF2D7" d="M380.2,253.9c-2.3-2.4-7.7-5.5-18.6-11.3c-10.4-5.6-18.9-10.1-30.5-13.3c-11.9-3.2-21.3-3.3-26.6-3.3
		c-25.3-0.1-44,8-48.4,10c-16.4,7.4-27.7,17.4-34.5,24.5c-2,6.9-5.6,23.2,0.8,41.7c7,21,22.3,31.9,30.5,37.8
		c7.4,5.5,27.8,19.5,56.4,18c5-0.3,38.5-2.5,60.3-30.5C387.2,305,394.2,269.3,380.2,253.9z M317.6,275.2c-1.4,2.2-5.8,8.2-13.9,9.2
		c-6.8,1-13.3-1.8-17.3-6.5c-3.2-3.7-7-11.1-3.9-16.6c3.2-5.8,11.8-5.9,19.2-5.9c6.8-0.1,15.6-0.1,18.6,5.3
		C323.3,266.3,318.5,273.9,317.6,275.2z"/>
	<path fill="#814F33" d="M301.7,255.4c-7.4,0-16,0.1-19.2,5.9c-3.1,5.5,0.7,12.9,3.9,16.6c4,4.7,10.5,7.5,17.3,6.5
		c8.1-1,12.5-7,13.9-9.2c0.9-1.3,5.7-8.9,2.7-14.5C317.3,255.3,308.5,255.3,301.7,255.4z"/>
	<path fill="#D02E00" d="M200.8,522.6c-7-11.3-10.2-21.5-11.9-28.5c-1.9-8-4.7-20.2-1.3-35.2c2.4-11,7.1-18.7,10.6-24.5
		c3.3-5.4,7.2-11.8,14.5-18c1.8-1.5,6.5-5.1,12.6-8c4.6-2,24.7-10.5,42.4-2s28.1,31.5,28.5,32.5c1.6,3.8,4,10.1,6.6,10
		c2.3-0.1,2.7-4.9,5.9-11.9c3.9-8.2,9.1-13.5,12.6-17.2c4.8-5.1,8.7-9.1,15.3-11.9c8.9-3.9,16.8-3.2,21.9-2.7
		c12.8,1.3,21.8,6.8,26.6,10c18.8,12,26.9,29.6,29.2,35.2c7.2,17.3,5.9,32.4,5.3,38.5c-0.9,9.1-3.2,32.4-15.9,37.2
		c-8.3,3.2-13.2-4.7-22.5-1.3c-9.5,3.4-14.9,15.4-16.6,25.2c-1.9,11,4.9,14.8,2.7,24.5c-0.4,1.9-2.2,7.8-13.3,17.2
		c-10,8.5-23.1,19.6-43.8,21.3c-21.4,1.6-36.7-8-47.1-14.5c-10.8-6.8-18.5-11.6-20.5-20.5c-2.2-9.4,3.7-14.8,0-27.8
		c-2-7.1-5.3-11.1-6.6-12.6c-1.5-1.8-4.2-4.3-10-7.3C221.2,527.4,212.9,523.7,200.8,522.6z"/>
</g>
<path fill="#B5E1E2" d="M8,6.5v759h596V6.5H8z M586.1,661.8c-3.7,8.2-11.3,24.8-29.2,39.1c-17.1,13.8-33.9,17.8-43.1,19.9
	c-15.6,3.5-24.9,5.7-33.8,0.6c-2.1-1.2-3.9-2.6-5.4-4.3c0.5,0.9,0.7,1.5,0.4,2c-1.8,2.9-18.1-3.4-29.2-9.2
	c-15.9-8.3-23.8-12.5-29.9-21.3c-4.8-7-6.6-13.7-13.9-16.6c-4.3-1.6-8.5-1.1-11.3-0.6c-17,3-30,13-37.8,17.2
	c-6.1,3.3-22.9,2.9-56.4,2c-53-1.5-59.5-3.5-66.3-7.3c-16.7-9.4-19.2-20.2-29.9-19.2c-11.4,1-13.3,13.9-34.5,31.1
	c-9.7,8-26.3,19-30.5,15.3c-0.4-0.4-0.7-0.9-0.7-1.6c-1.4,2.9-3,5.9-4.9,9.1c-9.8,2.7-33.2,7.2-58.9-2.7c-8-3.1-23.7-9.3-35.8-25.2
	c-13-16.9-14.3-35-15.3-50.3c-1.2-18.1-2.1-30.9,6.6-42.4c11-14.7,30-17.5,33.8-18c7.8-1.2,13.7-0.3,19.9,0.6
	c11.9,1.8,29.4,4.4,42.4,17.2c0.1,0.1,0.2,0.2,0.3,0.3c3.4-7.3,12.5-11.7,20.3-14.2v-3.1c-1-0.7-2-1.3-2.9-1.9
	c-2.4-1.4-3.2-1.5-11.3-4.7c-12.4-4.8-21.8-9-22.5-9.2c-16.6-7.3-33.1-29.1-38.5-51.1c-1.6-7-2.4-17.3-3.8-38.1
	c-0.4-6.3-0.8-12.3-0.9-17.7c-0.1-6.6-0.1-34.7,13.3-68.3c5.4-13.8,10-25,20.5-37.2c12.8-14.7,28.1-23.3,29.2-23.9
	c15.8-8.7,23.3-7.2,26.6-13.9c4.3-8.9-7.1-17.2-15.9-37.2c-5.9-13.3-21-48.8-10.6-85.5c3.7-12.8,9.2-21.5,13.3-27.8
	c2-3,9.5-14.3,22.6-25.9c0.3-0.3,1.1-1,2-1.8c0.8-0.7,1.6-1.4,2.4-2c-0.2,0-0.5,0-0.7,0c-7.6,0.1-12.9-3.4-22-9.4
	c-10.5-6.8-23.1-15.2-27.2-31.1c-4.4-17.7,4.7-32.6,6.6-35.8c7.1-11.6,17.1-17.1,21.3-19.2c4-2.2,15.1-7.7,29.2-6.6
	c22.5,1.8,35.9,19.4,42.4,27.8c15.7,20.5,13.4,38.2,12.6,39.8c-0.1,0.1-0.1,0.3-0.1,0.3c-0.1,0.2-0.3,0.5-0.6,0.8v2.7
	c3.2-0.9,5.7-1.5,7-1.8c1.1-0.3,5.7-1.5,11.6-2.8c45.2-9.6,82.9-6.6,82.9-6.6c14.9,1.2,30,2.4,48.2,8.4c-4.9-9.9,0.7-22.9,4.1-30.9
	c1.9-4.4,6.2-13.9,15.9-21.9c16.3-13.4,35.8-12.4,43.8-11.9c8.1,0.4,19,1,29.9,8.6c9.4,6.6,13.7,14.8,14.5,16.6c0,0,10,20-0.6,42.4
	c-0.6,1.4-1.4,2.8-1.4,2.8c-1.8,2.9-3.4,4.3-9.9,15.2c-1.3,2.2-4,5.7-8,10c-2.8,3-4.8,5.2-8,7.3c-4.3,2.9-8.7,4.3-10.6,4.7
	c0,0-0.1,0-0.1,0c5.2,5,10.3,10.7,14.9,17.6c20.1,30.1,18.6,63.4,18,74.9c-1.4,21.8-20.3,71.5-27.3,88.3c8.5,1.8,20.8,5.4,33.3,13.8
	c25.2,16.8,34.7,41.7,40.5,57.7c20.5,56.2,11.4,123.6-19.2,161.2c-8.3,10.2-26.4,32.4-45,29.9c-5.2-0.8-11-3.5-17.3-0.9
	c7.8-1.9,14.5,0.4,17.2,1.3c1.5,0.5,14.2,5.1,15.2,12c6.1-2.9,15.1-7,26.3-11.1c17-6.2,25.7-9.2,35.8-8.6
	c14.4,0.9,24.9,7.6,30.5,11.3c8.1,5.3,19.1,12.4,23.9,25.2C599.8,631.3,593.2,646,586.1,661.8z"/>
</svg>
