<?xml version="1.0" encoding="utf-8"?>
<!-- Generator: Adobe Illustrator 18.1.1, SVG Export Plug-In . SVG Version: 6.00 Build 0)  -->
<svg version="1.1" id="Layer_2" xmlns="http://www.w3.org/2000/svg" xmlns:xlink="http://www.w3.org/1999/xlink" x="0px" y="0px"
	 viewBox="0 0 612 792" enable-background="new 0 0 612 792" xml:space="preserve">
<path fill="#53C8EA" d="M7,66v642h570V66H7z M523.9,571.9c3.5,18.8-5.3,32.7-24.3,34.8c-15.5,1.8-26.7-0.7-37.6-8.4
	c-13.2-9.3-10.6-32.7,6.7-41.5c17.2-8.6,16.7-30.4,16.7-47.7c0-9-5.3-15.1-13-21.8c-0.7-0.5-0.8-1.1-0.6-1.4
	c-0.4,0.3-0.4,0.9,0.4,1.6c-7.4-6.3-17.1-13-26.6-22.5c-4.7-4.9-9.1-10-12.8-15.8c-0.5-1.1-1.2-1.4-2.1-1.1c-0.5,0-0.9,0.2-1.4,0.5
	c-4.5,3.6-9.2,7.1-14.2,10.6c6.6,8.3,14.4,14.1,14.4,23.2c0,16.5-14.1,64.2-10.6,82.8c3.5,18.8-5.3,32.7-24.3,34.8
	c-15.5,1.8-26.7-0.7-37.6-8.4c-13.2-9.3-10.6-32.7,6.7-41.5c17.2-8.6,16.7-30.4,16.7-47.7c0-6.4-2.8-11.3-7.2-16.2
	c-0.1,0.1-0.2,0.1-0.3,0.2c-6.5,4-13.2,7.9-19.9,12c-10.6,6.3-22.3,11.4-35.2,15.1c-0.2,10.1-0.3,24.4-0.4,39.1
	c0.2,0.2,0.3,0.6,0.3,1c0,24.6,0.9,50.3,3.7,60.1c6,21.5-0.9,32.4-9.1,48.9c-8.3,16.5-38.9,23.7-53.6,9
	c-14.8-14.6-6.2-35.2,12.7-48.4c10-7,10-37.4,6.5-68.8c0,0.1,0,0.1,0,0.2c-1.2-11.4-3-23-4.9-33.6c-24.8,1.2-50.3-2.5-73-11.6
	c-1.9,9.5-4.4,21.1-7,33.4c0-0.3,0-0.5,0-0.7c0,0,0,0.1,0,0.1c-5.6,26.9-11.1,56.3-9.3,69.8c3.5,25.7-22.2,38-39.4,42.2
	c-17.4,4.2-36.6-6.2-37.1-28c-0.4-16.2,26-27.8,35.7-37.5c3.7-3.7,7.9-28.7,11.6-58c0,0,0,0,0,0c0-0.1,0-0.1,0-0.2
	c0-1.1,0.2-2.3,0.4-3.3c0-0.5,0.2-1.1,0.2-1.6c0.2-0.9,0.2-1.8,0.4-2.6c0-0.5,0.2-0.9,0.2-1.4c0.2-1.2,0.4-2.5,0.5-3.7
	c0-0.5,0.2-0.9,0.2-1.4c0.2-0.9,0.2-1.9,0.4-2.8c0-0.4,0.2-0.9,0.2-1.4c0.2-1.1,0.2-2.1,0.4-3.2c0-0.4,0.2-0.9,0.2-1.2
	c0.2-1.2,0.2-2.3,0.4-3.5c0-0.5,0.2-1.1,0.2-1.6c0.2-0.9,0.2-1.8,0.4-2.6c0-0.5,0.2-0.9,0.2-1.4c0-1.2,0.2-2.5,0.4-3.7
	c0-0.4,0.2-0.9,0.2-1.4c0.2-0.9,0.2-1.8,0.4-2.6c0-0.5,0.2-1.1,0.2-1.6c0.2-0.9,0.2-1.9,0.4-2.8c0-0.4,0.2-0.9,0.2-1.4
	c0.2-1.1,0.2-2.1,0.4-3.2c0-0.5,0.2-1.1,0.2-1.6c0-0.9,0.2-1.6,0.2-2.5c0-0.5,0.2-0.9,0.2-1.4c0.2-1.2,0.2-2.5,0.4-3.5
	c0-0.5,0.2-0.9,0.2-1.4c0-0.7,0.2-1.6,0.2-2.3c0-0.5,0.2-0.9,0.2-1.4c0-0.9,0.2-1.6,0.2-2.5c0-0.7,0.2-1.2,0.2-1.9
	c0-0.7,0.2-1.6,0.2-2.3c0-0.5,0.2-1.2,0.2-1.8s0.2-1.1,0.2-1.6c0-0.7,0.2-1.2,0.2-1.8c0-0.7,0.2-1.2,0.2-1.9c0-0.7,0.2-1.6,0.2-2.3
	c0.2-0.5,0.2-0.9,0.2-1.4c0-0.5,0.2-1.1,0.2-1.6c0.2-0.4,0.2-0.7,0.2-1.1c0.2-2.1,0.4-4,0.5-5.8c0-0.2,0-0.2,0-0.4
	c0.2-1.4,0.2-2.6,0.4-3.9c0.7-7.2,1-11.8,1-12.4c-0.7-0.2-1.3-0.5-2.1-0.6c-0.9-0.2-1.6-0.5-2.5-0.7c-0.2,0-0.2-0.2-0.4-0.2
	c-12.8-4.5-23.9-11.9-30.5-18.3c6.5,6.5,17.8,14.1,30.8,18.7c-21.6-6.9-43.6-15.5-62.6-25.1c-10.6-5.5-20.2-11.1-28.7-16.9
	c-1.2-0.9-2.1-2.5-2.3-4.2c0-1.1,0.2-2.1,0.7-3.2c0.2-0.2,0.2-0.4,0.4-0.5c5.8-9.3,9-26.2,9-59.1c0-8.3,1.9-17.6,5.5-27.1
	c-0.2-0.2-0.4-0.2-0.5-0.4c-0.7-0.5-1.6-1.1-2.5-1.6c-0.4-0.4-0.9-0.5-1.2-0.9c-0.5-0.4-1.2-0.7-1.8-1.2c-0.4-0.4-0.9-0.7-1.2-1.1
	c-0.5-0.4-1.1-0.9-1.6-1.2s-0.9-0.7-1.4-1.1c-0.5-0.4-1.1-0.7-1.6-1.2c-0.5-0.5-0.9-0.9-1.4-1.2c-0.5-0.5-1.1-0.9-1.6-1.4
	c-0.5-0.4-1.1-0.9-1.4-1.2c-0.5-0.5-0.9-0.9-1.4-1.4c-0.4-0.4-0.9-0.7-1.2-1.2c-0.5-0.4-0.9-0.9-1.4-1.4c-0.4-0.5-0.9-0.9-1.2-1.4
	c-0.5-0.5-0.9-1.1-1.4-1.6c-0.9-1.1-1.6-1.9-2.5-3c-0.4-0.4-0.7-0.9-1.1-1.2c-0.5-0.5-0.9-1.2-1.4-1.8c-0.4-0.4-0.7-0.9-1.1-1.2
	c-0.5-0.7-0.9-1.2-1.4-1.9c-0.4-0.4-0.5-0.9-0.9-1.2c-0.5-0.5-0.9-1.2-1.4-1.9c-0.4-0.4-0.5-0.9-0.9-1.2c-0.5-0.7-0.9-1.4-1.4-2.1
	c-0.2-0.4-0.5-0.7-0.7-1.1c-0.5-0.7-0.9-1.6-1.4-2.3c-0.2-0.2-0.4-0.5-0.5-0.9c-0.5-0.9-0.9-1.8-1.4-2.6c0,0-0.2-0.2-0.2-0.4
	c-3-5.3-5.5-10.9-7.6-16.5c-0.2,0-0.2-0.2-0.2-0.2c-0.5-1.2-0.9-2.3-1.2-3.3c-0.2-0.2-0.2-0.2-0.2-0.4c-0.4-1.1-0.7-2.3-1.1-3.3
	v-0.2c-2.8-9.3-4.4-18.8-4.4-28c0-1.1,0-2.3,0-3.3c0-0.5,0-1.1,0-1.6c0.2-0.5,0.2-1.2,0.2-1.8s0.2-1.2,0.2-1.8s0.2-1.1,0.2-1.6
	c0.2-0.7,0.2-1.4,0.4-2.1c0-0.5,0.2-0.9,0.2-1.2c0.2-1.1,0.5-2.3,0.7-3.3c43.4-9.3,96.7,26.6,108.3,40.1c1.2-0.9,2.5-1.8,3.7-2.6
	c11.3-7.7,23.6-14.6,36.9-19.5c14.8-5.3,30.2-8.3,45.4-9.3c0-0.5,0-1.1,0-1.6c0-0.2,0-0.2,0-0.4c0-0.5,0.2-1.1,0.2-1.8
	c0-0.2,0-0.2,0-0.4c0-0.7,0.2-1.2,0.2-1.9c0-0.2,0-0.2,0-0.4c0.2-0.7,0.2-1.4,0.4-2.1c0-0.2,0-0.4,0-0.5c0-0.9,0.2-1.6,0.4-2.5
	c0.2-0.9,0.4-1.8,0.5-2.6c0-0.2,0.2-0.5,0.2-0.7c0.2-0.7,0.4-1.4,0.5-2.1c0-0.4,0.2-0.5,0.2-0.9c0.2-0.7,0.4-1.4,0.5-2.1
	c0-0.4,0.2-0.5,0.2-0.9c0.2-0.9,0.5-1.6,0.7-2.5c0-0.2,0.2-0.5,0.2-0.7c0.7-2.1,1.4-4.4,2.1-6.7v-0.2c0.4-1.1,0.7-2.1,1.1-3.2
	c0-0.2,0.2-0.5,0.2-0.7c0.4-1.1,0.7-1.9,1.1-2.8c0.2-0.4,0.2-0.5,0.4-0.9c0.4-0.9,0.7-1.9,1.1-2.8c0.2-0.4,0.2-0.5,0.4-0.9
	c0.5-1.1,0.9-2.1,1.4-3.2c0-0.2,0.2-0.2,0.2-0.4c1.1-2.5,2.1-4.9,3.3-7.4c0.2-0.4,0.2-0.5,0.4-0.7c0.4-1.1,0.9-1.9,1.4-3
	c0.2-0.4,0.4-0.5,0.5-0.9c0.4-1.1,0.9-1.9,1.4-2.8c0.2-0.4,0.4-0.5,0.5-0.9c0.5-1.1,1.1-2.1,1.6-3c0.2-0.4,0.2-0.5,0.4-0.7
	c1.6-2.3,3-4.7,4.6-7c0-0.2,0.2-0.2,0.2-0.4c0.7-1.1,1.4-1.9,2.1-3c0.2-0.2,0.4-0.5,0.5-0.7c0.7-0.9,1.2-1.8,1.9-2.6
	c0.2-0.2,0.4-0.5,0.5-0.7c0.7-0.7,1.4-1.6,2.1-2.5c0.2-0.2,0.4-0.4,0.5-0.5c2.6-3.2,5.6-6.2,8.6-8.8c0-0.2,0.2-0.2,0.4-0.4
	c0.9-0.9,1.8-1.6,2.6-2.3c0.2-0.2,0.4-0.4,0.5-0.5c0.9-0.5,1.8-1.2,2.6-1.9c0.2,0,0.4-0.2,0.5-0.4c1.1-0.7,2.1-1.4,3.2-2.1
	c0.2,0,0.2,0,0.2,0c1.1-0.7,2.3-1.4,3.5-2.1c0.4,0.4,0.5,0.5,0.9,0.7l0.2,0.2c0.7,0.5,1.4,1.1,2.1,1.6c0.4,0.4,0.9,0.7,1.2,1.1
	c0.7,0.5,1.2,1.1,1.8,1.6c0.4,0.4,0.9,0.9,1.2,1.2c0.5,0.5,1.1,1.1,1.6,1.6c0.4,0.5,0.9,0.9,1.2,1.4c0.5,0.5,1.1,1.2,1.6,1.8
	c0.5,0.5,0.9,0.9,1.2,1.4c0.5,0.7,1.1,1.2,1.6,1.9c0.4,0.5,0.7,0.9,1.1,1.4c0.7,0.9,1.2,1.9,1.9,2.8c0,0.2,0.2,0.2,0.2,0.4
	c0.4,0.4,0.5,0.9,0.9,1.2l0.2,0.2c0.5,0.9,1.1,1.6,1.6,2.5c0.2,0.5,0.5,1.1,0.9,1.6c0.5,0.7,0.9,1.4,1.2,2.1
	c0.4,0.5,0.7,1.1,1.1,1.8c0.4,0.7,0.7,1.4,1.1,2.1c0.2,0.7,0.5,1.2,0.9,1.9s0.5,1.4,0.9,2.1s0.5,1.4,0.9,2.1
	c0.4,0.5,0.5,1.2,0.9,1.9c0.4,0.7,0.5,1.4,0.9,2.1c0.4,0.5,0.5,1.2,0.7,1.8c0.2,0.2,0.2,0.2,0.2,0.4c0.5,1.4,0.9,2.8,1.4,4.2v0.2
	c0.2,0.7,0.4,1.2,0.5,1.8c0.2,0.9,0.5,1.8,0.7,2.6c0.2,0.5,0.4,1.2,0.5,1.8c0.4,0.9,0.5,1.8,0.7,2.6c0,0.5,0.2,1.2,0.4,1.8
	c0.2,0.9,0.4,1.8,0.5,2.6c0.2,0.5,0.2,1.1,0.4,1.6c0.2,0.7,0.2,1.2,0.4,1.9c0-0.2,0-0.2,0-0.2c0.2,1.2,0.4,2.3,0.5,3.3
	c0,0.2,0,0.2,0,0.4c0,1.1,0.2,2.1,0.4,3.2c0,0.2,0,0.2,0,0.4c0.5,4.4,0.9,8.8,0.9,13.2c0,0.2,0,0.5,0,0.9c0,0.7,0,1.6,0,2.5
	c0,0.4,0,0.9,0,1.2c0,0.7,0,1.6,0,2.3c0,0.4,0,0.9,0,1.4c0,0.7-0.2,1.4-0.2,2.1c0,0.5-0.2,1.2-0.2,1.8c-0.2,1.1-0.2,1.9-0.4,3
	c-0.2,0.7-0.2,1.6-0.4,2.3c0,0.5-0.2,1.1-0.2,1.6c-0.2,0.7-0.2,1.4-0.4,2.1c-0.2,0.5-0.2,1.1-0.4,1.6c-0.2,0.7-0.4,1.4-0.5,2.1
	c-0.2,0.5-0.2,0.9-0.4,1.4c-0.2,0.7-0.4,1.6-0.5,2.3c-0.2,0.4-0.2,0.9-0.4,1.2c-0.4,1.2-0.7,2.3-1.1,3.3v0.2
	c4.4,2.5,8.4,5.3,12.1,8.1c2.3,1.8,4.6,3.7,6.5,5.8c1.1,1.1,2.1,2.1,3,3.2c21.3,25.1,34.6,36.1,45,39.4c0.2,0,0.2,0,0.2,0
	c0.2,0,0.4,0.2,0.5,0.2c2.6,1.1,4,3.7,3.9,5.8c0,0.4-0.2,0.5-0.2,0.9c0,0.2,0,0.2,0,0.2c-2.6,9.3-6.2,19.5-10.6,30.1
	c-0.2,0.4-0.2,0.5-0.2,0.9c-0.2,1.9,1.8,4.2,4,3.2c13-6.2,27.8-7.2,41.9-4c2.1,0.5,4.2,1.1,6.3,1.8c4.4,1.4,8.6,3,12.8,4.7
	c0.2-0.4,0.5-0.9,0.7-1.4c0-0.2,0-0.2,0-0.2c0.2-0.5,0.5-1.2,0.7-1.8v-0.2c0.2-0.5,0.5-1.2,0.7-1.9c0.2-0.5,0.5-1.4,0.7-2.1v-0.2
	c0.2-0.9,0.4-1.6,0.5-2.5c0-0.2,0-0.2,0-0.4c0.2-0.9,0.4-1.8,0.5-2.6c0-0.2,0-0.2,0-0.2c0.4-1.9,0.5-4,0.5-6.2c0-2.8-0.2-5.8-0.9-9
	c0-0.2,0-0.2,0-0.4c-0.2-0.7-0.4-1.2-0.5-1.9c0-0.2-0.2-0.4-0.2-0.5c-0.2-0.5-0.4-1.2-0.5-1.8c0-0.2-0.2-0.5-0.2-0.7
	c-0.2-0.5-0.5-1.1-0.7-1.6c-0.2-0.2-0.2-0.5-0.4-0.7c-0.4-0.5-0.5-1.2-0.9-1.8c-0.2-0.2-0.2-0.4-0.4-0.5c-0.4-0.7-0.7-1.6-1.2-2.3
	c-0.4-0.7-0.9-1.6-1.4-2.3c-0.2-0.2-0.4-0.5-0.5-0.7c-0.4-0.5-0.9-1.1-1.2-1.6c-0.2-0.4-0.5-0.5-0.7-0.9c-0.4-0.5-0.9-0.9-1.2-1.4
	c-0.4-0.2-0.5-0.5-0.9-0.9c-0.4-0.5-0.9-1.1-1.2-1.4c-0.2-0.2-0.5-0.5-0.9-0.9c-0.4-0.4-0.9-0.9-1.4-1.2c-0.4-0.4-0.7-0.5-1.1-0.9
	c-0.5-0.5-1.2-0.9-1.8-1.4c-0.4-0.4-0.7-0.5-1.1-0.9c-0.9-0.7-1.8-1.2-2.6-1.9c-0.2,0-0.2-0.2-0.4-0.2c-7.4-4.9-16.7-11.4-25.9-19
	c1.2,0,2.5-0.2,3.7-0.2c0.2,0,0.2,0,0.4,0c1.1-0.2,2.1-0.2,3.2-0.4c0.4,0,0.5-0.2,0.9-0.2c0.9-0.2,1.8-0.4,2.6-0.5
	c0.4,0,0.7-0.2,1.1-0.2c0.9-0.2,1.6-0.4,2.3-0.5c0.4-0.2,0.7-0.2,1.1-0.4c0.7-0.2,1.4-0.5,2.1-0.7c0.4,0,0.7-0.2,1.1-0.4
	c0.7-0.4,1.2-0.5,1.9-0.9c0.4-0.2,0.7-0.4,1.1-0.5c0.5-0.2,1.2-0.5,1.8-0.9c0.4-0.2,0.7-0.4,1.1-0.5c0.7-0.4,1.2-0.7,1.8-1.1
	c0,0,0,0,0,0c-0.3,0.2-0.6,0.4-0.9,0.5c-0.4,0.2-0.7,0.4-1.1,0.5c-0.5,0.4-1.2,0.5-1.8,0.9c-0.4,0.2-0.7,0.4-1.1,0.5
	c-0.7,0.4-1.2,0.7-1.9,0.9c-0.4,0-0.7,0.2-1.1,0.4c-0.7,0.2-1.4,0.5-2.1,0.7c-0.4,0.2-0.7,0.2-1.1,0.4c-0.7,0.2-1.6,0.4-2.3,0.5
	c-0.4,0-0.7,0.2-1.1,0.2c-0.9,0.2-1.8,0.4-2.6,0.5c-0.4,0-0.5,0.2-0.9,0.2c-1.1,0-2.1,0.2-2.6,0.4c-0.2,0-0.2,0-0.4,0
	c-1.2,0.2-2.5,0.2-3.7,0.2c-26.9-22.3-54-55.6-38.7-99.4c19.7,29.4,46.8,33.1,73.5,23.6c5.5-1.8,11.2-3,17.1-3.3c0-0.2,0-0.4,0-0.6
	c0.1,0.2,0.2,0.4,0.2,0.6c0.2,0,0.5,0,0.7,0c0,0.1,0,0.2,0,0.3c24.9-0.6,50.8,14.6,67.5,46.3c0.7,3,1.2,6.3,1.4,9.7
	c0,1.4,0.2,2.6,0.2,4c0,0.4,0,0.7,0,1.1c0,1.1,0,2.3,0,3.3c0,0.4,0,0.5,0,0.9c0,1.4,0,2.6-0.2,4c0,0.4,0,0.7,0,1.1
	c-0.2,1.1-0.2,2.1-0.4,3.2c-0.2,0.4-0.2,0.7-0.2,1.1c-0.2,1.2-0.4,2.6-0.5,3.9c-0.2,0.2-0.2,0.5-0.2,0.7c-0.4,1.1-0.5,2.3-0.7,3.3
	c0,0.4,0,0.9-0.2,1.2c-0.2,1.2-0.4,2.3-0.7,3.3c0,0.2-0.2,0.5-0.2,0.7c-0.4,1.2-0.7,2.5-1.1,3.7c-0.2,0.4-0.2,0.9-0.4,1.2
	c-0.4,0.9-0.5,1.8-0.9,2.6c0,0.4-0.2,0.9-0.4,1.2c-0.4,1.2-0.9,2.3-1.2,3.5c-0.2,0.5-0.4,0.9-0.5,1.4c-0.2,0.7-0.5,1.6-0.9,2.3
	c-0.4,0.5-0.5,1.1-0.7,1.6c-0.4,0.9-0.7,1.8-1.1,2.6c-0.2,0.7-0.5,1.4-0.9,2.1c-0.2,0.7-0.5,1.4-0.9,2.1c-0.4,0.5-0.5,1.2-0.9,1.8
	s-0.5,1.1-0.9,1.6c-0.5,1.1-1.1,2.1-1.6,3.2c-0.2,0.5-0.5,0.9-0.7,1.4c-0.5,0.7-0.9,1.4-1.2,2.1c-0.4,0.4-0.5,0.7-0.7,1.1
	c-1.4,2.3-2.8,4.6-4.2,6.9c-0.2,0.2-0.2,0.4-0.4,0.5c-0.5,0.7-1.1,1.6-1.6,2.3c-0.2,0-0.2,0.2-0.2,0.2c-1.6,2.5-3.3,4.7-5.1,7
	c-1.8,2.5-3.5,4.6-5.3,6.7l-0.2,0.2c-0.9,0.9-1.6,1.9-2.5,2.8c-0.2,0.2-0.4,0.4-0.5,0.5c-0.9,0.9-1.8,1.9-2.6,2.8
	c0,0.2-0.2,0.2-0.2,0.4c-0.9,0.9-1.9,1.9-2.8,2.8c-0.4,0.2-0.5,0.4-0.7,0.5c-0.7,0.7-1.4,1.2-2.1,1.9c-0.4,0.4-0.7,0.7-1.1,1.1
	c-0.5,0.5-1.1,1.1-1.6,1.4c-0.4,0.4-0.9,0.7-1.2,1.1c-0.5,0.4-0.9,0.7-1.4,1.1c-0.4,0.2-0.9,0.5-1.2,0.9c-0.5,0.4-0.9,0.7-1.4,1.1
	c-0.5,0.4-0.9,0.7-1.2,0.9c-0.5,0.4-1.1,0.7-1.6,1.1c-0.2,0-0.2,0.2-0.4,0.2c0,0.2-0.2,0.4-0.4,0.4c29.7,22,50.1,60,49.6,111
	c0,3.3-0.2,6.9-0.4,10.4c-0.2,0.9-0.2,1.6-0.2,2.3c-0.2,10.6,3.2,18,7.5,24.2c0.2,0.2,0.4,0.3,0.5,0.6c7.2,9.7,16.4,15.8,16.4,25.7
	C534.4,505.6,520.3,553.3,523.9,571.9z"/>
<path fill="#F1F2F2" d="M422,218.8C422,218.8,422,218.8,422,218.8c0.5-0.5,1.1-0.9,1.6-1.2c0.4-0.4,0.5-0.5,0.9-0.7
	c0.5-0.4,1.1-0.7,1.6-1.2c0.2-0.2,0.5-0.5,0.7-0.7c0.5-0.4,1.1-0.9,1.6-1.4c0.2-0.2,0.5-0.5,0.7-0.7c0.5-0.5,1.1-1.1,1.6-1.6
	c0.2-0.2,0.4-0.4,0.5-0.5c0.7-0.7,1.2-1.4,1.8-2.1c0.2-0.2,0.2-0.2,0.4-0.4c1.4-1.8,2.6-3.5,3.7-5.3c0-0.2,0.2-0.2,0.2-0.4
	c0.5-0.9,0.9-1.6,1.4-2.5c0-0.4,0.2-0.7,0.4-0.9c0.4-0.7,0.7-1.4,1.1-2.1c0.2-0.4,0.4-0.7,0.5-1.1c0.4-0.7,0.5-1.2,0.9-1.9
	c0.2-0.5,0.4-0.9,0.5-1.2c0.2-0.7,0.5-1.2,0.7-1.9c0.2-0.4,0.4-0.9,0.5-1.2c0.4-0.5,0.5-1.1,0.7-1.8c0-0.4,0.2-0.9,0.4-1.2
	c0.2-0.5,0.4-1.2,0.5-1.8c0-0.5,0.2-0.9,0.4-1.4s0.4-1.2,0.5-1.8c0.2-0.5,0.2-0.9,0.4-1.4c0-0.5,0.2-1.2,0.4-1.8
	c0.2-0.5,0.2-0.9,0.4-1.4c0.2-0.7,0.2-1.2,0.4-1.9c0.2-0.5,0.4-0.9,0.4-1.4c0.2-0.7,0.2-1.2,0.4-1.9c0-0.4,0.2-0.9,0.2-1.4
	c0-0.7,0.2-1.2,0.2-1.9c0-0.5,0.2-0.9,0.2-1.4c0-0.7,0.2-1.2,0.2-1.9c0-0.5,0.2-0.9,0.2-1.4c0.2-0.7,0.2-1.4,0.2-2.1
	c0-0.5,0-0.9,0-1.2c0.2-1.1,0.2-2.1,0.2-3.2c0-0.5,0-0.9,0-1.4c0-0.7,0-1.2,0-1.8c0-0.2,0-0.2,0-0.2c0-2.3-0.2-4.6-0.4-6.9
	c0-0.1,0-0.2,0-0.3c-5.8,0.3-11.5,1.5-17.1,3.3c-26.7,9.5-53.8,5.8-73.5-23.6c-15.3,43.8,11.8,77,38.7,99.4c1.2,0,2.5,0,3.7-0.2
	c0.2,0,0.2,0,0.4,0c0.5-0.2,1.6-0.4,2.6-0.4c0.4,0,0.5-0.2,0.9-0.2c0.9-0.2,1.8-0.4,2.6-0.5c0.4,0,0.7-0.2,1.1-0.2
	c0.7-0.2,1.6-0.4,2.3-0.5c0.4-0.2,0.7-0.2,1.1-0.4c0.7-0.2,1.4-0.5,2.1-0.7c0.4-0.2,0.7-0.4,1.1-0.4c0.7-0.2,1.2-0.5,1.9-0.9
	c0.4-0.2,0.7-0.4,1.1-0.5c0.5-0.4,1.2-0.5,1.8-0.9c0.4-0.2,0.7-0.4,1.1-0.5c0.3-0.2,0.6-0.4,0.9-0.5
	C421.3,219.1,421.7,219,422,218.8C422,218.8,422,218.8,422,218.8z"/>
<path fill="#F1F2F2" d="M177.2,428.8c0.1,0,0.2,0.1,0.3,0.1c0.1,0,0.1,0,0.2,0c37.8,8.9,73.4,6.8,90.1-0.2c0.4-0.2,0.7-0.4,1.2-0.4
	c0.4-0.2,0.5-0.2,0.9-0.4s0.7-0.4,1.2-0.5c0.4-0.2,0.7-0.2,1.1-0.4c0.4-0.2,0.7-0.4,1.2-0.5c0.4-0.2,0.7-0.4,1.1-0.5
	c0.4-0.2,0.7-0.4,1.2-0.5c0.4-0.2,0.7-0.4,1.1-0.5c0.4-0.2,0.7-0.4,1.1-0.5c0.5-0.4,1.1-0.5,1.6-0.9c0.4-0.2,0.9-0.5,1.2-0.7
	c0.5-0.4,1.2-0.7,1.9-1.1c0.4-0.2,0.5-0.4,0.9-0.5c0.5-0.4,1.1-0.7,1.6-1.1c0.4-0.2,0.5-0.4,0.9-0.5c0.5-0.4,1.1-0.9,1.8-1.2
	c0.2-0.2,0.5-0.4,0.7-0.5c0.7-0.5,1.4-1.1,2.1-1.6c0.2-0.2,0.4-0.2,0.5-0.4c6.5-4.9,13.2-11.1,20-18.3c0.2-0.2,0.4-0.4,0.4-0.4
	c1.1-1.1,2.1-2.3,3.2-3.3c0.2-0.2,0.4-0.5,0.7-0.7c1.2-1.2,2.3-2.6,3.5-3.9c0.2-0.4,0.5-0.5,0.7-0.9c2.5-2.8,4.7-5.8,7.2-8.8
	c0.2-0.2,0.4-0.5,0.5-0.9c1.2-1.6,2.3-3,3.5-4.6c0.2-0.2,0.4-0.4,0.4-0.5c1.1-1.4,2.1-3,3.2-4.6c0.2-0.2,0.4-0.5,0.5-0.7
	c1.1-1.6,2.1-3.2,3.3-4.7c0.4-0.5,0.5-0.9,0.9-1.4c0.9-1.4,1.8-2.8,2.6-4c0.2-0.4,0.4-0.5,0.5-0.9c0.2-0.2,0.2-0.4,0.4-0.5
	c0.4-0.5,0.7-1.2,1.1-1.8c0.2-0.4,0.4-0.5,0.5-0.9c9.4-17.4,11.8-36.7,8.6-41.6C334.1,326.3,314.4,348,291,338
	c-29.5-12.7-39.6-12.3-56.8-6.7c-1.1,0.4-2.1,0.7-3.2,1.1c-1.1,0.4-2.1,0.9-3.2,1.2c-0.5,0.2-0.9,0.4-1.2,0.5
	c-0.4,0.2-0.9,0.4-1.2,0.5c-0.4,0.4-0.9,0.5-1.4,0.7c-0.2,0.2-0.5,0.2-0.7,0.4c-0.7,0.4-1.2,0.5-1.9,0.9c-0.2,0-0.2,0.2-0.4,0.2
	c-0.7,0.4-1.2,0.5-1.8,0.9c-0.2,0-0.2,0.2-0.4,0.2c-0.7,0.4-1.2,0.7-1.9,1.1c0,0.2-0.2,0.2-0.2,0.2c-0.5,0.4-1.2,0.7-1.8,1.1
	c0,0.2-0.2,0.2-0.2,0.2c-0.7,0.4-1.4,0.7-1.9,1.2c-8.1,6-14.8,15.1-24.1,33.9c-11.3,22.7-41.9,19.3-64.7,21.1c0,2.2,2.2,5.5,5.9,9.3
	c6.6,6.4,17.7,13.8,30.5,18.3c0.2,0,0.2,0.2,0.4,0.2c0.9,0.2,1.6,0.5,2.5,0.7c0.8,0.2,1.4,0.4,2.1,0.6c0-0.1,0-0.1,0-0.1
	C169.4,426.8,173.3,427.9,177.2,428.8z M231.8,338.7c0.3-0.1,0.6-0.2,1-0.4c3.1-1.2,5.9-2,8.5-2.4c12.3-2.1,19.2,3,20.8,8.2
	c0,0,0,0,0,0c0.1,0.3,0.1,0.6,0.1,1c0.1,5.7-10.1,19.2-14.6,25.2c0,0,0,0,0,0.2c-1.4,1.8-4,2.3-6,1.9c-8-1.7-25.4-5.9-27.7-10.6
	c0-0.1-0.1-0.1-0.1-0.2c0,0,0,0,0,0C211.6,355.9,214.9,344.9,231.8,338.7z"/>
<path fill="#CE6A39" d="M472.5,485.4c16.4-2.5,34.1-9.7,43.3-22.3c0.4-0.7,1.1-0.8,1.7-0.3c-4.3-6.2-7.7-13.6-7.5-24.2
	c0-0.7,0-1.4,0.2-2.3c0.2-3.5,0.4-7,0.4-10.4c0.5-51-19.9-89-49.6-111c0.2,0,0.4-0.2,0.4-0.4c0.2,0,0.2-0.2,0.4-0.2
	c0.5-0.4,1.1-0.7,1.6-1.1c0.4-0.2,0.7-0.5,1.2-0.9c0.5-0.4,0.9-0.7,1.4-1.1c0.4-0.4,0.9-0.7,1.2-0.9c0.5-0.4,0.9-0.7,1.4-1.1
	c0.4-0.4,0.9-0.7,1.2-1.1c0.5-0.4,1.1-0.9,1.6-1.4c0.4-0.4,0.7-0.7,1.1-1.1c0.7-0.7,1.4-1.2,2.1-1.9c0.2-0.2,0.4-0.4,0.7-0.5
	c0.9-0.9,1.9-1.9,2.8-2.8c0-0.2,0.2-0.2,0.2-0.4c0.9-0.9,1.8-1.9,2.6-2.8c0.2-0.2,0.4-0.4,0.5-0.5c0.9-0.9,1.6-1.9,2.5-2.8l0.2-0.2
	c1.8-2.1,3.5-4.2,5.3-6.7c1.8-2.3,3.5-4.6,5.1-7c0,0,0-0.2,0.2-0.2c0.5-0.7,1.1-1.6,1.6-2.3c0.2-0.2,0.2-0.4,0.4-0.5
	c1.4-2.3,2.8-4.6,4.2-6.9c0.2-0.4,0.4-0.7,0.7-1.1c0.4-0.7,0.7-1.4,1.2-2.1c0.2-0.5,0.5-0.9,0.7-1.4c0.5-1.1,1.1-2.1,1.6-3.2
	c0.4-0.5,0.5-1.1,0.9-1.6s0.5-1.2,0.9-1.8c0.4-0.7,0.7-1.4,0.9-2.1c0.4-0.7,0.7-1.4,0.9-2.1c0.4-0.9,0.7-1.8,1.1-2.6
	c0.2-0.5,0.4-1.1,0.7-1.6c0.4-0.7,0.7-1.6,0.9-2.3c0.2-0.5,0.4-0.9,0.5-1.4c0.4-1.2,0.9-2.3,1.2-3.5c0.2-0.4,0.4-0.9,0.4-1.2
	c0.4-0.9,0.5-1.8,0.9-2.6c0.2-0.4,0.2-0.9,0.4-1.2c0.4-1.2,0.7-2.5,1.1-3.7c0-0.2,0.2-0.5,0.2-0.7c0.4-1.1,0.5-2.1,0.7-3.3
	c0.2-0.4,0.2-0.9,0.2-1.2c0.2-1.1,0.4-2.3,0.7-3.3c0-0.2,0-0.5,0.2-0.7c0.2-1.2,0.4-2.6,0.5-3.9c0-0.4,0-0.7,0.2-1.1
	c0.2-1.1,0.2-2.1,0.4-3.2c0-0.4,0-0.7,0-1.1c0.2-1.4,0.2-2.6,0.2-4c0-0.4,0-0.5,0-0.9c0-1.1,0-2.3,0-3.3c0-0.4,0-0.7,0-1.1
	c0-1.4-0.2-2.6-0.2-4c-0.2-3.3-0.7-6.7-1.4-9.7c-16.7-31.7-42.6-46.8-67.5-46.3c-0.2,0-0.5,0-0.7,0c0-0.1,0-0.2,0-0.3
	c0-0.2-0.1-0.3-0.2-0.6c0,0.2,0,0.4,0,0.6c0,0.1,0,0.2,0,0.3c0.2,2.3,0.4,4.6,0.4,6.9c0,0,0,0,0,0.2c0,0.5,0,1.1,0,1.8
	c0,0.5,0,0.9,0,1.4c0,1.1,0,2.1-0.2,3.2c0,0.4,0,0.7,0,1.2c0,0.7,0,1.4-0.2,2.1c0,0.5-0.2,0.9-0.2,1.4c0,0.7-0.2,1.2-0.2,1.9
	c0,0.5-0.2,0.9-0.2,1.4c0,0.7-0.2,1.2-0.2,1.9c0,0.5-0.2,1.1-0.2,1.4c-0.2,0.7-0.2,1.2-0.4,1.9c0,0.5-0.2,0.9-0.4,1.4
	c-0.2,0.7-0.2,1.2-0.4,1.9c-0.2,0.5-0.2,0.9-0.4,1.4c-0.2,0.5-0.4,1.2-0.4,1.8c-0.2,0.5-0.2,0.9-0.4,1.4c-0.2,0.5-0.4,1.2-0.5,1.8
	s-0.4,0.9-0.4,1.4c-0.2,0.5-0.4,1.2-0.5,1.8c-0.2,0.4-0.4,0.9-0.4,1.2c-0.2,0.7-0.4,1.2-0.7,1.8c-0.2,0.4-0.4,0.9-0.5,1.2
	c-0.2,0.7-0.5,1.2-0.7,1.9c-0.2,0.4-0.4,0.7-0.5,1.2c-0.4,0.7-0.5,1.2-0.9,1.9c-0.2,0.4-0.4,0.7-0.5,1.1c-0.4,0.7-0.7,1.4-1.1,2.1
	c-0.2,0.2-0.4,0.5-0.4,0.9c-0.5,0.9-0.9,1.6-1.4,2.5c0,0.2-0.2,0.2-0.2,0.4c-1.1,1.8-2.3,3.5-3.7,5.3c-0.2,0.2-0.2,0.2-0.4,0.4
	c-0.5,0.7-1.1,1.4-1.8,2.1c-0.2,0.2-0.4,0.4-0.5,0.5c-0.5,0.5-1.1,1.1-1.6,1.6c-0.2,0.2-0.5,0.5-0.7,0.7c-0.5,0.5-1.1,1.1-1.6,1.4
	c-0.2,0.2-0.5,0.5-0.7,0.7c-0.5,0.5-1.1,0.9-1.6,1.2c-0.4,0.2-0.5,0.4-0.9,0.7c-0.5,0.4-1.1,0.7-1.6,1.2c0,0,0,0,0,0c0,0,0,0,0,0
	c-0.4,0.2-0.7,0.4-0.9,0.5c0,0,0,0,0,0c-0.5,0.4-1.1,0.7-1.8,1.1c-0.4,0.2-0.7,0.4-1.1,0.5c-0.5,0.4-1.2,0.7-1.8,0.9
	c-0.4,0.2-0.7,0.4-1.1,0.5c-0.7,0.4-1.2,0.5-1.9,0.9c-0.4,0.2-0.7,0.4-1.1,0.4c-0.7,0.2-1.4,0.5-2.1,0.7c-0.4,0.2-0.7,0.2-1.1,0.4
	c-0.7,0.2-1.4,0.4-2.3,0.5c-0.4,0-0.7,0.2-1.1,0.2c-0.9,0.2-1.8,0.4-2.6,0.5c-0.4,0-0.5,0.2-0.9,0.2c-1.1,0.2-2.1,0.2-3.2,0.4
	c-0.2,0-0.2,0-0.4,0c-1.2,0-2.5,0.2-3.7,0.2c9.1,7.6,18.5,14.1,25.9,19c0.2,0,0.2,0.2,0.4,0.2c0.9,0.7,1.8,1.2,2.6,1.9
	c0.4,0.4,0.7,0.5,1.1,0.9c0.5,0.5,1.2,0.9,1.8,1.4c0.4,0.4,0.7,0.5,1.1,0.9c0.5,0.4,1.1,0.9,1.4,1.2c0.4,0.4,0.7,0.7,0.9,0.9
	c0.4,0.4,0.9,0.9,1.2,1.4c0.4,0.4,0.5,0.7,0.9,0.9c0.4,0.5,0.9,0.9,1.2,1.4c0.2,0.4,0.5,0.5,0.7,0.9c0.4,0.5,0.9,1.1,1.2,1.6
	c0.2,0.2,0.4,0.5,0.5,0.7c0.5,0.7,1.1,1.6,1.4,2.3c0.5,0.7,0.9,1.6,1.2,2.3c0.2,0.2,0.2,0.4,0.4,0.5c0.4,0.5,0.5,1.2,0.9,1.8
	c0.2,0.2,0.2,0.5,0.4,0.7c0.2,0.5,0.5,1.1,0.7,1.6c0,0.2,0.2,0.5,0.2,0.7c0.2,0.5,0.4,1.2,0.5,1.8c0,0.2,0.2,0.4,0.2,0.5
	c0.2,0.7,0.4,1.2,0.5,1.9c0,0.2,0,0.2,0,0.4c0.7,3.2,0.9,6.2,0.9,9c0,2.1-0.2,4.2-0.5,6.2c0,0,0,0,0,0.2c-0.2,0.9-0.4,1.8-0.5,2.6
	c0,0.2,0,0.2,0,0.4c-0.2,0.9-0.4,1.6-0.5,2.5v0.2c-0.2,0.7-0.5,1.6-0.7,2.1c-0.2,0.7-0.5,1.4-0.7,1.9v0.2c-0.2,0.5-0.5,1.2-0.7,1.8
	c0,0,0,0,0,0.2c-0.2,0.5-0.5,1.1-0.7,1.4c-4.2-1.8-8.4-3.3-12.8-4.7c-2.1-0.7-4.2-1.2-6.3-1.8c-14.1-3.2-28.8-2.1-41.9,4
	c-2.3,1.1-4.2-1.2-4-3.2c0-0.4,0-0.5,0.2-0.9c4.4-10.6,7.9-20.8,10.6-30.1c0,0,0,0,0-0.2c0-0.4,0.2-0.5,0.2-0.9
	c0.2-2.1-1.2-4.7-3.9-5.8c-0.2,0-0.4-0.2-0.5-0.2c0,0,0,0-0.2,0c-10.4-3.3-23.7-14.2-45-39.4c-0.9-1.1-1.9-2.1-3-3.2
	c-1.9-2.1-4.2-4-6.5-5.8c-3.7-2.8-7.7-5.6-12.1-8.1v-0.2c0.4-1.1,0.7-2.1,1.1-3.3c0.2-0.4,0.2-0.9,0.4-1.2c0.2-0.7,0.4-1.6,0.5-2.3
	c0.2-0.5,0.2-0.9,0.4-1.4c0.2-0.7,0.4-1.4,0.5-2.1c0.2-0.5,0.2-1.1,0.4-1.6c0.2-0.7,0.2-1.4,0.4-2.1c0-0.5,0.2-1.1,0.2-1.6
	c0.2-0.7,0.2-1.6,0.4-2.3c0.2-1.1,0.2-1.9,0.4-3c0-0.5,0.2-1.2,0.2-1.8c0-0.7,0.2-1.4,0.2-2.1c0-0.5,0-1.1,0-1.4c0-0.7,0-1.6,0-2.3
	c0-0.4,0-0.9,0-1.2c0-0.9,0-1.8,0-2.5c0-0.4,0-0.7,0-0.9c0-4.4-0.4-8.8-0.9-13.2c0-0.2,0-0.2,0-0.4c-0.2-1.1-0.4-2.1-0.4-3.2
	c0-0.2,0-0.2,0-0.4c-0.2-1.1-0.4-2.1-0.5-3.3c0,0,0,0,0,0.2c-0.2-0.7-0.2-1.2-0.4-1.9c-0.2-0.5-0.2-1.1-0.4-1.6
	c-0.2-0.9-0.4-1.8-0.5-2.6c-0.2-0.5-0.4-1.2-0.4-1.8c-0.2-0.9-0.4-1.8-0.7-2.6c-0.2-0.5-0.4-1.2-0.5-1.8c-0.2-0.9-0.5-1.8-0.7-2.6
	c-0.2-0.5-0.4-1.1-0.5-1.8v-0.2c-0.5-1.4-0.9-2.8-1.4-4.2c0-0.2,0-0.2-0.2-0.4c-0.2-0.5-0.4-1.2-0.7-1.8c-0.4-0.7-0.5-1.4-0.9-2.1
	c-0.4-0.7-0.5-1.4-0.9-1.9c-0.4-0.7-0.5-1.4-0.9-2.1s-0.5-1.4-0.9-2.1s-0.7-1.2-0.9-1.9c-0.4-0.7-0.7-1.4-1.1-2.1
	c-0.4-0.7-0.7-1.2-1.1-1.8c-0.4-0.7-0.7-1.4-1.2-2.1c-0.4-0.5-0.7-1.1-0.9-1.6c-0.5-0.9-1.1-1.6-1.6-2.5l-0.2-0.2
	c-0.4-0.4-0.5-0.9-0.9-1.2c0-0.2-0.2-0.2-0.2-0.4c-0.7-0.9-1.2-1.9-1.9-2.8c-0.4-0.5-0.7-0.9-1.1-1.4c-0.5-0.7-1.1-1.2-1.6-1.9
	c-0.4-0.5-0.7-0.9-1.2-1.4c-0.5-0.5-1.1-1.2-1.6-1.8c-0.4-0.5-0.9-0.9-1.2-1.4c-0.5-0.5-1.1-1.1-1.6-1.6c-0.4-0.4-0.9-0.9-1.2-1.2
	c-0.5-0.5-1.1-1.1-1.8-1.6c-0.4-0.4-0.9-0.7-1.2-1.1c-0.7-0.5-1.4-1.1-2.1-1.6L282,86c-0.4-0.2-0.5-0.4-0.9-0.7
	c-1.2,0.7-2.5,1.4-3.5,2.1c0,0,0,0-0.2,0c-1.1,0.7-2.1,1.4-3.2,2.1c-0.2,0.2-0.4,0.4-0.5,0.4c-0.9,0.7-1.8,1.4-2.6,1.9
	c-0.2,0.2-0.4,0.4-0.5,0.5c-0.9,0.7-1.8,1.4-2.6,2.3c-0.2,0.2-0.4,0.2-0.4,0.4c-3,2.6-6,5.6-8.6,8.8c-0.2,0.2-0.4,0.4-0.5,0.5
	c-0.7,0.9-1.4,1.8-2.1,2.5c-0.2,0.2-0.4,0.5-0.5,0.7c-0.7,0.9-1.2,1.8-1.9,2.6c-0.2,0.2-0.4,0.5-0.5,0.7c-0.7,1.1-1.4,1.9-2.1,3
	c0,0.2-0.2,0.2-0.2,0.4c-1.6,2.3-3,4.7-4.6,7c-0.2,0.2-0.2,0.4-0.4,0.7c-0.5,0.9-1.1,1.9-1.6,3c-0.2,0.4-0.4,0.5-0.5,0.9
	c-0.5,0.9-1.1,1.8-1.4,2.8c-0.2,0.4-0.4,0.5-0.5,0.9c-0.5,1.1-1.1,1.9-1.4,3c-0.2,0.2-0.2,0.4-0.4,0.7c-1.2,2.5-2.3,4.9-3.3,7.4
	c0,0.2-0.2,0.2-0.2,0.4c-0.5,1.1-0.9,2.1-1.4,3.2c-0.2,0.4-0.2,0.5-0.4,0.9c-0.4,0.9-0.7,1.9-1.1,2.8c-0.2,0.4-0.2,0.5-0.4,0.9
	c-0.4,0.9-0.7,1.8-1.1,2.8c0,0.2-0.2,0.5-0.2,0.7c-0.4,1.1-0.7,2.1-1.1,3.2v0.2c-0.7,2.3-1.4,4.6-2.1,6.7c0,0.2-0.2,0.5-0.2,0.7
	c-0.2,0.9-0.5,1.6-0.7,2.5c0,0.4-0.2,0.5-0.2,0.9c-0.2,0.7-0.4,1.4-0.5,2.1c0,0.4-0.2,0.5-0.2,0.9c-0.2,0.7-0.4,1.4-0.5,2.1
	c0,0.2-0.2,0.5-0.2,0.7c-0.2,0.9-0.4,1.8-0.5,2.6c-0.2,0.9-0.4,1.6-0.4,2.5c0,0.2,0,0.4,0,0.5c-0.2,0.7-0.2,1.4-0.4,2.1
	c0,0.2,0,0.2,0,0.4c0,0.7-0.2,1.2-0.2,1.9c0,0.2,0,0.2,0,0.4c0,0.7-0.2,1.2-0.2,1.8c0,0.2,0,0.2,0,0.4c0,0.5,0,1.1,0,1.6
	c-15.1,1.1-30.6,4-45.4,9.3c-13.4,4.9-25.7,11.8-36.9,19.5c-1.2,0.9-2.5,1.8-3.7,2.6c-11.6-13.5-64.9-49.4-108.3-40.1
	c-0.2,1.1-0.5,2.3-0.7,3.3c0,0.4-0.2,0.7-0.2,1.2c-0.2,0.7-0.2,1.4-0.4,2.1c0,0.5-0.2,1.1-0.2,1.6s-0.2,1.2-0.2,1.8s0,1.2-0.2,1.8
	c0,0.5,0,1.1,0,1.6c0,1.1,0,2.3,0,3.3c0,9.1,1.6,18.6,4.4,28v0.2c0.4,1.1,0.7,2.3,1.1,3.3c0,0.2,0,0.2,0.2,0.4
	c0.4,1.1,0.7,2.1,1.2,3.3c0,0,0,0.2,0.2,0.2c2.1,5.6,4.6,11.3,7.6,16.5c0,0.2,0.2,0.4,0.2,0.4c0.5,0.9,0.9,1.8,1.4,2.6
	c0.2,0.4,0.4,0.7,0.5,0.9c0.5,0.7,0.9,1.6,1.4,2.3c0.2,0.4,0.5,0.7,0.7,1.1c0.5,0.7,0.9,1.4,1.4,2.1c0.4,0.4,0.5,0.9,0.9,1.2
	c0.5,0.7,0.9,1.4,1.4,1.9c0.4,0.4,0.5,0.9,0.9,1.2c0.5,0.7,0.9,1.2,1.4,1.9c0.4,0.4,0.7,0.9,1.1,1.2c0.5,0.5,0.9,1.2,1.4,1.8
	c0.4,0.4,0.7,0.9,1.1,1.2c0.9,1.1,1.6,1.9,2.5,3c0.5,0.5,0.9,1.1,1.4,1.6c0.4,0.5,0.9,0.9,1.2,1.4c0.5,0.5,0.9,1.1,1.4,1.4
	c0.4,0.5,0.9,0.9,1.2,1.2c0.5,0.5,0.9,0.9,1.4,1.4c0.4,0.4,0.9,0.9,1.4,1.2c0.5,0.5,1.1,0.9,1.6,1.4c0.5,0.4,0.9,0.7,1.4,1.2
	c0.5,0.5,1.1,0.9,1.6,1.2c0.5,0.4,0.9,0.7,1.4,1.1s1.1,0.9,1.6,1.2c0.4,0.4,0.9,0.7,1.2,1.1c0.5,0.5,1.2,0.9,1.8,1.2
	c0.4,0.4,0.9,0.5,1.2,0.9c0.9,0.5,1.8,1.1,2.5,1.6c0.2,0.2,0.4,0.2,0.5,0.4c-3.5,9.5-5.5,18.8-5.5,27.1c0,32.9-3.2,49.8-9,59.1
	c-0.2,0.2-0.2,0.4-0.4,0.5c-0.5,1.1-0.7,2.1-0.7,3.2c0.2,1.8,1.1,3.3,2.3,4.2c8.4,5.8,18.1,11.4,28.7,16.9c19,9.7,41,18.3,62.6,25.1
	c-13.1-4.6-24.3-12.2-30.8-18.7c-3.7-3.7-5.9-7.1-5.9-9.3c22.9-1.8,53.5,1.6,64.7-21.1c9.3-18.8,16-28,24.1-33.9
	c0.5-0.5,1.2-0.9,1.9-1.2c0,0,0.2,0,0.2-0.2c0.5-0.4,1.2-0.7,1.8-1.1c0,0,0.2,0,0.2-0.2c0.7-0.4,1.2-0.7,1.9-1.1
	c0.2,0,0.2-0.2,0.4-0.2c0.5-0.4,1.1-0.5,1.8-0.9c0.2,0,0.2-0.2,0.4-0.2c0.7-0.4,1.2-0.5,1.9-0.9c0.2-0.2,0.5-0.2,0.7-0.4
	c0.5-0.2,1.1-0.4,1.4-0.7c0.4-0.2,0.9-0.4,1.2-0.5c0.4-0.2,0.7-0.4,1.2-0.5c1.1-0.4,2.1-0.9,3.2-1.2c1.1-0.4,2.1-0.7,3.2-1.1
	c17.2-5.6,27.3-6,56.8,6.7c23.4,10,43-11.7,61.7-25.3c0,0,0,0,0.1,0c3.7,4.2,1.2,24.1-8.3,42c-0.2,0.4-0.4,0.5-0.5,0.9
	c-0.4,0.5-0.7,1.2-1.1,1.8c-0.2,0.2-0.2,0.4-0.4,0.5c-0.2,0.4-0.4,0.5-0.5,0.9c-0.9,1.4-1.8,2.8-2.6,4c-0.4,0.5-0.5,0.9-0.9,1.4
	c-1.1,1.6-2.1,3.2-3.3,4.7c-0.2,0.2-0.4,0.5-0.5,0.7c-1.1,1.6-2.1,3-3.2,4.6c-0.2,0.2-0.4,0.4-0.4,0.5c-1.2,1.6-2.3,3.2-3.5,4.6
	c-0.2,0.4-0.4,0.5-0.5,0.9c-2.3,3-4.7,6-7.2,8.8c-0.2,0.4-0.5,0.5-0.7,0.9c-1.2,1.4-2.3,2.6-3.5,3.9c-0.2,0.2-0.4,0.5-0.7,0.7
	c-1.1,1.2-2.1,2.3-3.2,3.3c-0.2,0.2-0.4,0.4-0.4,0.4c-6.9,7.2-13.5,13.4-20,18.3c-0.2,0.2-0.4,0.2-0.5,0.4c-0.7,0.5-1.4,1.1-2.1,1.6
	c-0.4,0.2-0.5,0.4-0.7,0.5c-0.5,0.4-1.2,0.9-1.8,1.2c-0.4,0.2-0.5,0.4-0.9,0.5c-0.5,0.4-1.1,0.7-1.6,1.1c-0.4,0.2-0.5,0.4-0.9,0.5
	c-0.7,0.4-1.2,0.7-1.9,1.1c-0.4,0.2-0.9,0.5-1.2,0.7c-0.5,0.4-1.1,0.5-1.6,0.9c-0.4,0.2-0.7,0.4-1.1,0.5c-0.4,0.2-0.7,0.4-1.1,0.5
	c-0.4,0.2-0.7,0.4-1.2,0.5c-0.4,0.2-0.7,0.4-1.1,0.5c-0.4,0.2-0.7,0.4-1.2,0.5c-0.4,0.2-0.7,0.4-1.1,0.4c-0.4,0.2-0.9,0.4-1.2,0.5
	c-0.4,0.2-0.5,0.2-0.9,0.4s-0.7,0.4-1.2,0.4c-16.7,7-52.2,9.1-90.5-0.2c-0.1,0-0.1,0-0.2,0c-0.1,0-0.2-0.1-0.3-0.1
	c-3.9-1-7.8-2-11.8-3.2c0,0,0,0,0,0.1c0,0.6-0.4,5.2-1,12.4c-0.2,1.2-0.2,2.5-0.4,3.9c0,0.2,0,0.2,0,0.4c-0.2,1.8-0.4,3.7-0.5,5.8
	c0,0.4,0,0.7-0.2,1.1c0,0.5-0.2,1.1-0.2,1.6c0,0.5,0,0.9-0.2,1.4c0,0.7-0.2,1.6-0.2,2.3c0,0.7-0.2,1.2-0.2,1.9
	c0,0.5-0.2,1.1-0.2,1.8c0,0.5-0.2,1.1-0.2,1.6s-0.2,1.2-0.2,1.8c0,0.7-0.2,1.6-0.2,2.3c0,0.7-0.2,1.2-0.2,1.9c0,0.9-0.2,1.6-0.2,2.5
	c0,0.5-0.2,0.9-0.2,1.4c0,0.7-0.2,1.6-0.2,2.3c0,0.5-0.2,0.9-0.2,1.4c-0.2,1.1-0.2,2.3-0.4,3.5c0,0.5-0.2,0.9-0.2,1.4
	c0,0.9-0.2,1.6-0.2,2.5c0,0.5-0.2,1.1-0.2,1.6c-0.2,1.1-0.2,2.1-0.4,3.2c0,0.5-0.2,1.1-0.2,1.4c-0.2,0.9-0.2,1.9-0.4,2.8
	c0,0.5-0.2,1.1-0.2,1.6c-0.2,0.9-0.2,1.8-0.4,2.6c0,0.5-0.2,1.1-0.2,1.4c-0.2,1.2-0.4,2.5-0.4,3.7c0,0.5-0.2,0.9-0.2,1.4
	c-0.2,0.9-0.2,1.8-0.4,2.6c0,0.5-0.2,1.1-0.2,1.6c-0.2,1.2-0.2,2.3-0.4,3.5c0,0.4-0.2,0.9-0.2,1.2c-0.2,1.1-0.2,2.1-0.4,3.2
	c0,0.5-0.2,1.1-0.2,1.4c-0.2,0.9-0.2,1.9-0.4,2.8c0,0.5-0.2,0.9-0.2,1.4c-0.2,1.2-0.4,2.5-0.5,3.7c0,0.5-0.2,0.9-0.2,1.4
	c-0.2,0.9-0.2,1.8-0.4,2.6c0,0.5-0.2,1.1-0.2,1.6c-0.2,1.1-0.4,2.3-0.4,3.3c0,0.1,0,0.1,0,0.2c0-0.4,0.7-0.9,1.2-0.5
	c10.4,6.2,23.2,10.6,36.2,10.7c0.5,0,1.2,0.3,1.1,1.1c0,0.2,0,0.4,0,0.7c2.6-12.3,5.1-23.9,7-33.4c22.7,9.1,48.2,12.8,73,11.6
	c1.9,10.6,3.7,22.2,4.9,33.6c0-0.1,0-0.1,0-0.2c0-0.1,0-0.1,0-0.2c0-1.1,0.7-1.6,1.9-1.4c11.3,3.7,24.4,3.9,36.1-0.7
	c0.6-0.2,1.2-0.1,1.6,0.4c0-14.7,0.2-29,0.4-39.1c12.8-3.7,24.6-8.8,35.2-15.1c6.7-4,13.4-7.9,19.9-12c0.1-0.1,0.2-0.1,0.3-0.2
	c0-0.1-0.1-0.1-0.1-0.2c14.8-9,29-17.9,41.9-27.1c0.1,0.1,0.1,0.1,0.2,0.2c5-3.5,9.7-7,14.2-10.6c0.5-0.4,0.9-0.5,1.4-0.5
	c0.9-0.4,1.6,0,2.1,1.1c3.7,5.8,8.1,10.9,12.8,15.8c9.5,9.5,19.2,16.2,26.6,22.5c-0.8-0.7-0.9-1.3-0.4-1.6
	C471.9,485.6,472.2,485.5,472.5,485.4z M287,113.8c0,0,0,0.2,0.2,0.2c9.3,13.5,22.5,51.4,14.4,82.7c-13.7-5.8-29.9-9.8-47.1-11.4
	c0,0,0,0,0-0.2c0,0,0,0-0.2,0C254.3,171.1,268.5,124.9,287,113.8z M276.6,307.6c0-6,4.9-10.9,10.9-10.9s10.9,4.9,10.9,10.9
	s-4.9,10.9-10.9,10.9S276.6,313.6,276.6,307.6z M163.7,341.9c3.8-3.2,9.2-3.4,13.2-0.7c0,0,0,0,0,0c0.2,0.2,0.5,0.3,0.7,0.5
	c0.6,0.5,1.2,1,1.7,1.6c3.9,4.6,3.2,11.4-1.2,15.5c-4.7,3.8-11.5,3.3-15.4-1.1c-0.1-0.1-0.2-0.2-0.3-0.3
	C158.6,352.8,159.1,345.9,163.7,341.9z M87.2,275.4L87.2,275.4L87.2,275.4C87.2,275.4,87.2,275.4,87.2,275.4
	c-8.3-5.8-15.5-13.5-21.3-22c0,0,0,0,0,0c0,0,0,0,0,0c-13-18.1-20-39.2-21.3-50.5c21.1-3.5,61.7,22.3,71,32.9c0,0,0,0,0.2,0.2
	C103.7,248.5,93.9,262,87.2,275.4z"/>
<path fill="#5F5F5F" d="M191.8,541.1c-13-0.2-25.9-4.6-36.2-10.7c-0.5-0.3-1.2,0.2-1.2,0.5c0,0,0,0,0,0c-3.7,29.4-7.9,54.3-11.6,58
	c-9.7,9.7-36.1,21.3-35.7,37.5c0.5,21.8,19.7,32.2,37.1,28c17.2-4.2,42.9-16.5,39.4-42.2c-1.8-13.5,3.7-42.9,9.3-69.8
	c0,0,0-0.1,0-0.1C193,541.5,192.3,541.1,191.8,541.1z"/>
<path fill="#5F5F5F" d="M315.8,552.2c-11.6,4.6-24.8,4.4-36.1,0.7c-1.2-0.2-1.9,0.4-1.9,1.4c0,0.1,0,0.1,0,0.2
	c3.5,31.4,3.5,61.8-6.5,68.8c-18.8,13.2-27.4,33.8-12.7,48.4c14.8,14.8,45.4,7.6,53.6-9c8.3-16.5,15.1-27.4,9.1-48.9
	c-2.8-9.8-3.7-35.5-3.7-60.1c-0.1-0.4-0.2-0.8-0.3-1C317,552.1,316.4,552,315.8,552.2z"/>
<path fill="#5F5F5F" d="M373,486.1c0,0.1,0.1,0.1,0.1,0.2c4.5,4.9,7.2,9.8,7.2,16.2c0,17.2,0.5,39-16.7,47.7
	c-17.2,8.8-19.9,32.2-6.7,41.5c10.9,7.7,22.2,10.2,37.6,8.4c19-2.1,27.8-16,24.3-34.8c-3.5-18.6,10.6-66.3,10.6-82.8
	c0-9.1-7.8-14.8-14.4-23.2c-0.1-0.1-0.1-0.1-0.2-0.2C402,468.1,387.7,477.1,373,486.1z"/>
<path fill="#5F5F5F" d="M518.1,463.4c-0.2-0.3-0.4-0.4-0.5-0.6c-0.7-0.6-1.3-0.4-1.7,0.3c-9.1,12.7-26.9,19.9-43.3,22.3
	c-0.3,0.1-0.6,0.2-0.8,0.5c-0.2,0.4-0.1,0.9,0.6,1.4c7.7,6.7,13,12.8,13,21.8c0,17.2,0.5,39-16.7,47.7c-17.2,8.8-19.9,32.2-6.7,41.5
	c10.9,7.7,22.2,10.2,37.6,8.4c19-2.1,27.8-16,24.3-34.8c-3.5-18.6,10.6-66.3,10.6-82.8C534.4,479.2,525.3,473.1,518.1,463.4z"/>
<path fill="#5F5F5F" d="M214,361.7C214,361.7,214,361.7,214,361.7c0,0.1,0.1,0.1,0.1,0.2c2.3,4.7,19.7,8.7,27.5,10.4
	c1.9,0.4,4.6-0.2,6-1.9c4.6-5.9,14.8-19.6,14.7-25.2c0-0.4,0-0.7-0.1-1c0,0,0,0,0,0c-1.7-5.1-8.7-10.2-20.8-8.2
	c-2.6,0.4-5.4,1.2-8.5,2.4c-0.3,0.1-0.6,0.2-1,0.4C214.9,344.9,211.7,355.9,214,361.7z"/>
<path fill="#5F5F5F" d="M163.9,342.1c-4.6,3.9-5.1,10.7-1.2,15.5c0,0,0.1,0.1,0.1,0.1c3.9,4.5,10.7,5,15.4,1.1
	c4.4-4,5.1-10.9,1.2-15.5c-0.5-0.6-1.1-1.2-1.7-1.6c-0.2-0.2-0.5-0.3-0.7-0.5c0,0,0,0,0,0C173,338.7,167.7,338.9,163.9,342.1z"/>
<circle fill="#5F5F5F" cx="287.5" cy="307.6" r="10.9"/>
<path fill="#5F5F5F" d="M254.4,185c0,0.2,0,0.2,0,0.2c17.2,1.6,33.4,5.6,47.1,11.4c8.1-31.3-5.1-69.1-14.4-82.7
	C268.7,125,254.4,170.9,254.4,185z"/>
<path fill="#5F5F5F" d="M115.5,236c-9.3-10.7-49.6-36.4-70.7-32.9c1.2,11.1,8.3,32.2,21.1,50.3c0,0,0,0,0,0c0,0,0,0,0,0
	c6,8.3,13,16,21.3,22c0,0,0,0,0,0l0,0c6.7-13.4,16.4-26.9,28.5-39.2C115.7,236.2,115.7,236.2,115.5,236z"/>
</svg>
